<?xml version="1.0" encoding="UTF-8"?>
<!DOCTYPE svg PUBLIC "-//W3C//DTD SVG 1.1//EN" "http://www.w3.org/Graphics/SVG/1.1/DTD/svg11.dtd">
<svg xmlns="http://www.w3.org/2000/svg" version="1.1" width="514px" height="89px" style="shape-rendering:geometricPrecision; text-rendering:geometricPrecision; image-rendering:optimizeQuality; fill-rule:evenodd; clip-rule:evenodd" xmlns:xlink="http://www.w3.org/1999/xlink">
<g><path style="opacity:0.613" fill="#fefffe" d="M -0.5,-0.5 C 25.1667,-0.5 50.8333,-0.5 76.5,-0.5C 76.5,29.1667 76.5,58.8333 76.5,88.5C 74.1667,88.5 71.8333,88.5 69.5,88.5C 69.4111,69.8002 68.5778,51.1335 67,32.5C 66.2049,25.3957 64.8715,18.3957 63,11.5C 62.0642,7.79261 60.2308,4.62595 57.5,2C 55.2403,1.95583 53.2403,2.78917 51.5,4.5C 47.681,10.1492 43.681,15.6492 39.5,21C 39.8333,21.3333 40.1667,21.6667 40.5,22C 36.6454,28.8307 32.6454,35.4974 28.5,42C 28.8333,42.3333 29.1667,42.6667 29.5,43C 27.6154,45.7953 25.9488,48.6287 24.5,51.5C 23.5481,53.0453 23.2148,54.712 23.5,56.5C 20.7237,56.0889 20.057,56.9223 21.5,59C 20.8993,60.605 19.8993,61.9384 18.5,63C 19,63.5 19.5,64 20,64.5C 27.7321,51.5367 36.5654,39.37 46.5,28C 48.7689,26.4424 51.1022,26.2757 53.5,27.5C 54.9322,31.0192 55.7655,34.6858 56,38.5C 56.4999,55.1633 56.6666,71.83 56.5,88.5C 37.5,88.5 18.5,88.5 -0.5,88.5C -0.5,58.8333 -0.5,29.1667 -0.5,-0.5 Z"/></g>
<g><path style="opacity:0.729" fill="#fefffe" d="M 274.5,8.5 C 285.206,6.94254 293.372,10.6092 299,19.5C 300.149,22.3926 300.649,25.3926 300.5,28.5C 295.833,28.5 291.167,28.5 286.5,28.5C 284.979,22.4063 281.313,20.573 275.5,23C 270.159,29.6681 267.826,37.3348 268.5,46C 267.826,54.6652 270.159,62.3319 275.5,69C 281.842,71.4927 285.509,69.326 286.5,62.5C 300.461,58.9416 303.961,63.2749 297,75.5C 286.907,85.0814 276.074,85.9148 264.5,78C 257.316,68.6117 253.982,57.945 254.5,46C 253.873,33.4822 257.54,22.4822 265.5,13C 268.437,11.1991 271.437,9.69914 274.5,8.5 Z"/></g>
<g><path style="opacity:0.725" fill="#fefffe" d="M 132.5,9.5 C 138.167,9.5 143.833,9.5 149.5,9.5C 155.915,33.7419 161.915,58.0752 167.5,82.5C 162.901,82.8 158.401,82.4667 154,81.5C 149.824,63.7963 145.491,46.1297 141,28.5C 136.187,46.4185 131.687,64.4185 127.5,82.5C 122.833,82.5 118.167,82.5 113.5,82.5C 119.627,58.1174 125.961,33.7841 132.5,9.5 Z"/></g>
<g><path style="opacity:0.732" fill="#fefffe" d="M 174.5,9.5 C 179.167,9.5 183.833,9.5 188.5,9.5C 188.5,33.8333 188.5,58.1667 188.5,82.5C 183.833,82.5 179.167,82.5 174.5,82.5C 174.5,58.1667 174.5,33.8333 174.5,9.5 Z"/></g>
<g><path style="opacity:0.742" fill="#fefffe" d="M 201.5,9.5 C 212.231,9.09729 222.898,9.59729 233.5,11C 239.667,13.1667 243.833,17.3333 246,23.5C 246.877,30.2494 246.544,36.9161 245,43.5C 242.974,47.0262 240.141,49.6929 236.5,51.5C 241.245,61.3236 246.245,70.9903 251.5,80.5C 251.291,81.086 250.957,81.586 250.5,82C 245.833,82.6667 241.167,82.6667 236.5,82C 229.816,69.7988 223.816,57.2988 218.5,44.5C 218.57,43.2284 218.903,42.0617 219.5,41C 230.836,42.116 235.003,37.2826 232,26.5C 230.681,24.5125 228.848,23.3459 226.5,23C 222.848,22.5014 219.182,22.3347 215.5,22.5C 215.667,42.1695 215.5,61.8362 215,81.5C 210.599,82.4667 206.099,82.8 201.5,82.5C 201.5,58.1667 201.5,33.8333 201.5,9.5 Z"/></g>
<g><path style="opacity:0.745" fill="#fefffe" d="M 309.5,9.5 C 314.167,9.5 318.833,9.5 323.5,9.5C 323.333,27.1698 323.5,44.8365 324,62.5C 328.107,70.7209 334.273,72.5542 342.5,68C 343.701,67.0975 344.535,65.9308 345,64.5C 345.333,46.5 345.667,28.5 346,10.5C 350.401,9.53335 354.901,9.20001 359.5,9.5C 359.667,28.5029 359.5,47.5029 359,66.5C 355.51,78.2657 347.51,83.9324 335,83.5C 323.286,84.3154 315.286,79.3154 311,68.5C 309.576,48.8739 309.076,29.2072 309.5,9.5 Z"/></g>
<g><path style="opacity:0.728" fill="#fefffe" d="M 372.5,9.5 C 377.167,9.5 381.833,9.5 386.5,9.5C 386.5,33.8333 386.5,58.1667 386.5,82.5C 381.833,82.5 377.167,82.5 372.5,82.5C 372.5,58.1667 372.5,33.8333 372.5,9.5 Z"/></g>
<g><path style="opacity:0.741" fill="#fefffe" d="M 394.5,9.5 C 411.5,9.5 428.5,9.5 445.5,9.5C 445.5,13.8333 445.5,18.1667 445.5,22.5C 439.5,22.5 433.5,22.5 427.5,22.5C 427.5,42.5 427.5,62.5 427.5,82.5C 422.833,82.5 418.167,82.5 413.5,82.5C 413.5,62.5 413.5,42.5 413.5,22.5C 407.491,22.6662 401.491,22.4995 395.5,22C 394.536,17.9341 394.203,13.7675 394.5,9.5 Z"/></g>
<g><path style="opacity:0.73" fill="#fefffe" d="M 447.5,9.5 C 452.544,9.17252 457.544,9.50585 462.5,10.5C 466.333,18.1667 470.167,25.8333 474,33.5C 477.785,25.4288 481.951,17.5955 486.5,10C 491.155,9.50085 495.821,9.33418 500.5,9.5C 494.559,22.7147 488.059,35.7147 481,48.5C 480.5,59.8284 480.333,71.1618 480.5,82.5C 475.901,82.8 471.401,82.4667 467,81.5C 466.667,70.1667 466.333,58.8333 466,47.5C 458.992,35.1518 452.825,22.4852 447.5,9.5 Z"/></g>
<g><path style="opacity:0.379" fill="#fefffe" d="M 513.5,12.5 C 513.5,15.5 513.5,18.5 513.5,21.5C 506.977,25.3638 502.643,23.6972 500.5,16.5C 502.158,11.0034 505.825,9.17011 511.5,11C 512.044,11.7172 512.711,12.2172 513.5,12.5 Z"/></g>
</svg>
