<?xml version="1.0" encoding="UTF-8"?>
<!DOCTYPE svg PUBLIC "-//W3C//DTD SVG 1.1//EN" "http://www.w3.org/Graphics/SVG/1.1/DTD/svg11.dtd">
<svg xmlns="http://www.w3.org/2000/svg" version="1.1" width="200px" height="200px" style="shape-rendering:geometricPrecision; text-rendering:geometricPrecision; image-rendering:optimizeQuality; fill-rule:evenodd; clip-rule:evenodd" xmlns:xlink="http://www.w3.org/1999/xlink">
<g><path style="opacity:1" fill="#fafbfb" d="M -0.5,-0.5 C 28.8333,-0.5 58.1667,-0.5 87.5,-0.5C 47.9864,7.50616 22.153,30.8395 10,69.5C 7.83909,79.376 7.00576,89.376 7.5,99.5C 12.1667,99.5 16.8333,99.5 21.5,99.5C 21.1765,92.9779 21.5098,86.6446 22.5,80.5C 24.0624,83.6415 25.5624,86.9749 27,90.5C 27.7083,91.3805 28.5416,92.0472 29.5,92.5C 30.209,93.404 31.209,93.7373 32.5,93.5C 32.2322,91.901 32.5655,90.5676 33.5,89.5C 34.6581,92.6087 36.3247,95.442 38.5,98C 41.8823,98.8236 45.2156,98.657 48.5,97.5C 43.8365,90.9763 44.8365,85.4763 51.5,81C 53.7438,80.0943 56.0772,79.5943 58.5,79.5C 61.2811,80.4707 63.9477,81.304 66.5,82C 65.2582,77.3092 66.9249,73.8092 71.5,71.5C 72.1744,69.8045 72.8411,68.1379 73.5,66.5C 74.8897,65.1007 75.8897,63.4341 76.5,61.5C 80.4016,58.1791 84.4016,55.0124 88.5,52C 87.376,51.7508 86.376,51.2508 85.5,50.5C 88.7024,49.9532 91.7024,48.9532 94.5,47.5C 95.4519,49.0453 95.7852,50.712 95.5,52.5C 100.943,52.7987 101.61,51.4654 97.5,48.5C 98.4847,46.9017 98.6514,45.235 98,43.5C 95.779,42.0656 94.279,40.0656 93.5,37.5C 90.024,40.784 88.3573,40.1173 88.5,35.5C 81.3034,34.1958 78.1368,37.1958 79,44.5C 76.7304,45.7272 74.897,47.3939 73.5,49.5C 72.7379,48.3717 72.0712,47.2051 71.5,46C 64.1293,46.2497 62.7959,43.7497 67.5,38.5C 69.7541,37.5849 71.7541,36.2516 73.5,34.5C 74.6199,35.8334 75.9532,36.3334 77.5,36C 79.1186,31.2191 82.4519,28.3858 87.5,27.5C 88.737,27.5565 89.737,28.0565 90.5,29C 88.7923,30.5095 87.1256,32.0095 85.5,33.5C 88.4281,34.4841 91.4281,34.8174 94.5,34.5C 94.5,33.5 94.5,32.5 94.5,31.5C 96.3464,31.7778 97.6798,31.1112 98.5,29.5C 95.953,24.9575 91.953,22.6242 86.5,22.5C 81.8745,22.8011 79.2078,25.1344 78.5,29.5C 75.0292,29.1006 74.6958,27.6006 77.5,25C 75.5,24.3333 73.5,24.3333 71.5,25C 70.2532,26.4579 70.2532,27.9579 71.5,29.5C 69.838,30.3267 68.5046,31.4933 67.5,33C 65.8659,33.4935 64.1992,33.6602 62.5,33.5C 62.5,32.5 62.5,31.5 62.5,30.5C 66.4293,30.5788 68.096,28.9121 67.5,25.5C 65.1996,28.4501 62.3663,29.1168 59,27.5C 56.3516,28.2192 54.8516,29.8859 54.5,32.5C 55.9778,32.238 57.3112,32.5713 58.5,33.5C 55.8631,34.6207 53.1965,34.6207 50.5,33.5C 49.2867,33.2528 48.62,32.5862 48.5,31.5C 66.9866,17.1249 87.9866,11.2916 111.5,14C 127.889,16.6935 141.889,23.8601 153.5,35.5C 151.712,35.2148 150.045,35.5481 148.5,36.5C 147.808,39.3729 146.141,40.8729 143.5,41C 144.357,40.3109 145.023,39.4776 145.5,38.5C 143.14,37.135 141.473,35.135 140.5,32.5C 137.145,31.1887 136.145,32.1887 137.5,35.5C 138.756,35.4614 139.756,35.9614 140.5,37C 138.963,38.1096 138.297,39.6096 138.5,41.5C 141.888,40.835 142.888,41.835 141.5,44.5C 141.919,45.6721 142.585,46.6721 143.5,47.5C 141.028,48.8962 138.362,49.7296 135.5,50C 133.481,57.2237 136.147,59.8904 143.5,58C 145.68,55.136 147.68,52.136 149.5,49C 154.399,46.8072 158.732,47.6406 162.5,51.5C 158.745,53.2796 159.078,54.1129 163.5,54C 164.554,52.6124 164.72,51.1124 164,49.5C 162.333,48.5 160.667,47.5 159,46.5C 158.53,45.4232 158.697,44.4232 159.5,43.5C 161.017,43.5106 162.184,44.1772 163,45.5C 166.017,49.534 168.517,53.8673 170.5,58.5C 166.404,60.2125 162.07,60.8792 157.5,60.5C 157.5,58.8333 157.5,57.1667 157.5,55.5C 153.43,55.4318 149.763,56.4318 146.5,58.5C 138.699,58.1382 134.532,61.8049 134,69.5C 131.628,71.7032 129.461,74.0365 127.5,76.5C 127.626,78.1998 128.293,79.6998 129.5,81C 128.208,84.2208 128.374,87.3874 130,90.5C 133.601,95.0421 138.101,97.5421 143.5,98C 146.935,97.1155 150.268,95.9488 153.5,94.5C 156.783,95.327 160.116,95.6604 163.5,95.5C 163.005,101.862 165.172,107.196 170,111.5C 170.434,114.179 170.268,116.846 169.5,119.5C 169.34,121.355 170.007,122.688 171.5,123.5C 168.263,130.307 164.263,136.64 159.5,142.5C 158.957,142.56 158.624,142.893 158.5,143.5C 164.32,144.816 169.987,144.816 175.5,143.5C 180.767,136.295 184.434,128.295 186.5,119.5C 196.418,89.3433 191.752,61.6767 172.5,36.5C 156.957,16.23 136.623,3.89667 111.5,-0.5C 140.833,-0.5 170.167,-0.5 199.5,-0.5C 199.5,66.1667 199.5,132.833 199.5,199.5C 132.833,199.5 66.1667,199.5 -0.5,199.5C -0.5,132.833 -0.5,66.1667 -0.5,-0.5 Z"/></g>
<g><path style="opacity:1" fill="#436db5" d="M 87.5,-0.5 C 95.5,-0.5 103.5,-0.5 111.5,-0.5C 136.623,3.89667 156.957,16.23 172.5,36.5C 172.481,38.0603 172.148,39.5603 171.5,41C 174.27,44.3166 173.603,46.8166 169.5,48.5C 172.03,48.9157 174.197,47.9157 176,45.5C 175.981,47.1075 175.815,48.7741 175.5,50.5C 181.264,50.8596 182.931,53.6929 180.5,59C 182.369,60.5013 184.203,62.0013 186,63.5C 188.309,73.9955 189.142,84.6622 188.5,95.5C 187.5,95.5 186.5,95.5 185.5,95.5C 185.768,101.382 185.434,107.215 184.5,113C 186.013,114.879 186.679,117.046 186.5,119.5C 184.434,128.295 180.767,136.295 175.5,143.5C 169.974,143.821 164.64,143.488 159.5,142.5C 164.263,136.64 168.263,130.307 171.5,123.5C 171.918,120.235 173.085,117.235 175,114.5C 175.497,112.19 175.663,109.857 175.5,107.5C 176.117,107.389 176.617,107.056 177,106.5C 177.667,96.1667 177.667,85.8333 177,75.5C 176.617,74.944 176.117,74.6107 175.5,74.5C 175.5,72.8333 175.5,71.1667 175.5,69.5C 174.328,67.1561 174.328,64.8228 175.5,62.5C 173.784,61.4513 172.451,60.118 171.5,58.5C 171.167,58.5 170.833,58.5 170.5,58.5C 168.517,53.8673 166.017,49.534 163,45.5C 162.184,44.1772 161.017,43.5106 159.5,43.5C 158.73,40.0437 156.73,37.377 153.5,35.5C 141.889,23.8601 127.889,16.6935 111.5,14C 87.9866,11.2916 66.9866,17.1249 48.5,31.5C 47.4928,32.8284 46.1595,33.8284 44.5,34.5C 43.6143,35.325 43.281,36.325 43.5,37.5C 37.9034,42.0875 33.9034,47.7542 31.5,54.5C 28.3787,55.7358 27.0454,58.0692 27.5,61.5C 26.0633,65.1085 24.5633,68.7751 23,72.5C 22.5026,75.146 22.3359,77.8127 22.5,80.5C 21.5098,86.6446 21.1765,92.9779 21.5,99.5C 16.8333,99.5 12.1667,99.5 7.5,99.5C 7.00576,89.376 7.83909,79.376 10,69.5C 22.153,30.8395 47.9864,7.50616 87.5,-0.5 Z"/></g>
<g><path style="opacity:1" fill="#2a8e52" d="M 67.5,38.5 C 67.5,37.1667 67.5,35.8333 67.5,34.5C 65.0607,35.0525 62.7273,35.0525 60.5,34.5C 57.7665,36.7765 54.7665,37.1098 51.5,35.5C 49.6274,35.4823 49.2941,35.9823 50.5,37C 49.9558,37.7172 49.2891,38.2172 48.5,38.5C 48.5299,37.5028 48.0299,36.8361 47,36.5C 45.8615,36.9891 44.6948,37.3225 43.5,37.5C 43.281,36.325 43.6143,35.325 44.5,34.5C 46.1595,33.8284 47.4928,32.8284 48.5,31.5C 48.62,32.5862 49.2867,33.2528 50.5,33.5C 53.1965,34.6207 55.8631,34.6207 58.5,33.5C 57.3112,32.5713 55.9778,32.238 54.5,32.5C 54.8516,29.8859 56.3516,28.2192 59,27.5C 62.3663,29.1168 65.1996,28.4501 67.5,25.5C 68.096,28.9121 66.4293,30.5788 62.5,30.5C 62.5,31.5 62.5,32.5 62.5,33.5C 64.1992,33.6602 65.8659,33.4935 67.5,33C 68.5046,31.4933 69.838,30.3267 71.5,29.5C 70.2532,27.9579 70.2532,26.4579 71.5,25C 73.5,24.3333 75.5,24.3333 77.5,25C 74.6958,27.6006 75.0292,29.1006 78.5,29.5C 79.2078,25.1344 81.8745,22.8011 86.5,22.5C 91.953,22.6242 95.953,24.9575 98.5,29.5C 97.6798,31.1112 96.3464,31.7778 94.5,31.5C 94.5,32.5 94.5,33.5 94.5,34.5C 91.4281,34.8174 88.4281,34.4841 85.5,33.5C 87.1256,32.0095 88.7923,30.5095 90.5,29C 89.737,28.0565 88.737,27.5565 87.5,27.5C 82.4519,28.3858 79.1186,31.2191 77.5,36C 75.9532,36.3334 74.6199,35.8334 73.5,34.5C 71.7541,36.2516 69.7541,37.5849 67.5,38.5 Z"/></g>
<g><path style="opacity:1" fill="#cbf2d2" d="M 48.5,38.5 C 46.2736,40.18 44.6069,39.8466 43.5,37.5C 44.6948,37.3225 45.8615,36.9891 47,36.5C 48.0299,36.8361 48.5299,37.5028 48.5,38.5 Z"/></g>
<g><path style="opacity:1" fill="#2c8f5b" d="M 137.5,35.5 C 138.244,38.9496 136.91,40.6162 133.5,40.5C 132.756,37.0504 134.09,35.3838 137.5,35.5 Z"/></g>
<g><path style="opacity:1" fill="#268f4f" d="M 153.5,35.5 C 156.73,37.377 158.73,40.0437 159.5,43.5C 158.697,44.4232 158.53,45.4232 159,46.5C 160.667,47.5 162.333,48.5 164,49.5C 164.72,51.1124 164.554,52.6124 163.5,54C 159.078,54.1129 158.745,53.2796 162.5,51.5C 158.732,47.6406 154.399,46.8072 149.5,49C 147.68,52.136 145.68,55.136 143.5,58C 136.147,59.8904 133.481,57.2237 135.5,50C 138.362,49.7296 141.028,48.8962 143.5,47.5C 142.585,46.6721 141.919,45.6721 141.5,44.5C 142.888,41.835 141.888,40.835 138.5,41.5C 138.297,39.6096 138.963,38.1096 140.5,37C 139.756,35.9614 138.756,35.4614 137.5,35.5C 136.145,32.1887 137.145,31.1887 140.5,32.5C 141.473,35.135 143.14,37.135 145.5,38.5C 145.023,39.4776 144.357,40.3109 143.5,41C 146.141,40.8729 147.808,39.3729 148.5,36.5C 150.045,35.5481 151.712,35.2148 153.5,35.5 Z"/></g>
<g><path style="opacity:1" fill="#4a71b2" d="M 172.5,36.5 C 191.752,61.6767 196.418,89.3433 186.5,119.5C 186.679,117.046 186.013,114.879 184.5,113C 185.434,107.215 185.768,101.382 185.5,95.5C 186.5,95.5 187.5,95.5 188.5,95.5C 189.142,84.6622 188.309,73.9955 186,63.5C 184.203,62.0013 182.369,60.5013 180.5,59C 182.931,53.6929 181.264,50.8596 175.5,50.5C 175.815,48.7741 175.981,47.1075 176,45.5C 174.197,47.9157 172.03,48.9157 169.5,48.5C 173.603,46.8166 174.27,44.3166 171.5,41C 172.148,39.5603 172.481,38.0603 172.5,36.5 Z"/></g>
<g><path style="opacity:1" fill="#509a74" d="M 90.5,53.5 C 93.0279,54.5179 92.8612,55.5179 90,56.5C 89.5,56.1667 89,55.8333 88.5,55.5C 89.2427,54.8182 89.9094,54.1515 90.5,53.5 Z"/></g>
<g><path style="opacity:1" fill="#2b7f72" d="M 31.5,54.5 C 30.4161,57.0041 29.0828,59.3374 27.5,61.5C 27.0454,58.0692 28.3787,55.7358 31.5,54.5 Z"/></g>
<g><path style="opacity:1" fill="#e4f8e6" d="M 66.5,64.5 C 66.5,63.8333 66.5,63.1667 66.5,62.5C 67.5754,61.4376 68.5754,61.4376 69.5,62.5C 68.9953,63.9185 67.9953,64.5852 66.5,64.5 Z"/></g>
<g><path style="opacity:1" fill="#158e45" d="M 170.5,58.5 C 170.833,58.5 171.167,58.5 171.5,58.5C 172.018,61.8873 172.851,65.2206 174,68.5C 174.383,69.056 174.883,69.3893 175.5,69.5C 175.5,71.1667 175.5,72.8333 175.5,74.5C 176.806,85.5043 176.806,96.5043 175.5,107.5C 175.663,109.857 175.497,112.19 175,114.5C 173.085,117.235 171.918,120.235 171.5,123.5C 170.007,122.688 169.34,121.355 169.5,119.5C 170.268,116.846 170.434,114.179 170,111.5C 165.172,107.196 163.005,101.862 163.5,95.5C 160.116,95.6604 156.783,95.327 153.5,94.5C 150.268,95.9488 146.935,97.1155 143.5,98C 138.101,97.5421 133.601,95.0421 130,90.5C 128.374,87.3874 128.208,84.2208 129.5,81C 128.293,79.6998 127.626,78.1998 127.5,76.5C 133.128,74.0288 136.295,69.6955 137,63.5C 139.228,61.0321 142.062,59.8654 145.5,60C 146.056,59.6174 146.389,59.1174 146.5,58.5C 149.763,56.4318 153.43,55.4318 157.5,55.5C 157.5,57.1667 157.5,58.8333 157.5,60.5C 162.07,60.8792 166.404,60.2125 170.5,58.5 Z"/></g>
<g><path style="opacity:1" fill="#37769e" d="M 171.5,58.5 C 172.451,60.118 173.784,61.4513 175.5,62.5C 174.328,64.8228 174.328,67.1561 175.5,69.5C 174.883,69.3893 174.383,69.056 174,68.5C 172.851,65.2206 172.018,61.8873 171.5,58.5 Z"/></g>
<g><path style="opacity:1" fill="#358d5a" d="M 146.5,58.5 C 146.389,59.1174 146.056,59.6174 145.5,60C 142.062,59.8654 139.228,61.0321 137,63.5C 136.295,69.6955 133.128,74.0288 127.5,76.5C 129.461,74.0365 131.628,71.7032 134,69.5C 134.532,61.8049 138.699,58.1382 146.5,58.5 Z"/></g>
<g><path style="opacity:1" fill="#429762" d="M 66.5,55.5 C 69.4937,57.9998 72.827,59.9998 76.5,61.5C 75.8897,63.4341 74.8897,65.1007 73.5,66.5C 72.177,61.9327 70.8437,61.7661 69.5,66C 67.8425,66.7252 66.8425,66.2252 66.5,64.5C 67.9953,64.5852 68.9953,63.9185 69.5,62.5C 68.5754,61.4376 67.5754,61.4376 66.5,62.5C 66.666,58.6266 65.666,57.9599 63.5,60.5C 63.5,59.8333 63.1667,59.5 62.5,59.5C 61.8333,58.8333 61.1667,58.1667 60.5,57.5C 63.0821,57.9746 65.0821,57.3079 66.5,55.5 Z"/></g>
<g><path style="opacity:1" fill="#1a8e48" d="M 67.5,38.5 C 62.7959,43.7497 64.1293,46.2497 71.5,46C 72.0712,47.2051 72.7379,48.3717 73.5,49.5C 74.897,47.3939 76.7304,45.7272 79,44.5C 78.1368,37.1958 81.3034,34.1958 88.5,35.5C 88.3573,40.1173 90.024,40.784 93.5,37.5C 94.279,40.0656 95.779,42.0656 98,43.5C 98.6514,45.235 98.4847,46.9017 97.5,48.5C 101.61,51.4654 100.943,52.7987 95.5,52.5C 95.7852,50.712 95.4519,49.0453 94.5,47.5C 91.7024,48.9532 88.7024,49.9532 85.5,50.5C 86.376,51.2508 87.376,51.7508 88.5,52C 84.4016,55.0124 80.4016,58.1791 76.5,61.5C 72.827,59.9998 69.4937,57.9998 66.5,55.5C 63.9196,53.9844 61.9196,54.6511 60.5,57.5C 61.1667,58.1667 61.8333,58.8333 62.5,59.5C 60.5241,60.4271 60.1908,61.7605 61.5,63.5C 62.9185,62.9953 63.5852,61.9953 63.5,60.5C 65.666,57.9599 66.666,58.6266 66.5,62.5C 66.5,63.1667 66.5,63.8333 66.5,64.5C 66.8425,66.2252 67.8425,66.7252 69.5,66C 70.8437,61.7661 72.177,61.9327 73.5,66.5C 72.8411,68.1379 72.1744,69.8045 71.5,71.5C 66.9249,73.8092 65.2582,77.3092 66.5,82C 63.9477,81.304 61.2811,80.4707 58.5,79.5C 56.0772,79.5943 53.7438,80.0943 51.5,81C 44.8365,85.4763 43.8365,90.9763 48.5,97.5C 45.2156,98.657 41.8823,98.8236 38.5,98C 36.3247,95.442 34.6581,92.6087 33.5,89.5C 31.3401,87.1887 29.6735,84.522 28.5,81.5C 28.1667,82 27.8333,82.5 27.5,83C 28.5775,85.8217 29.9108,88.4884 31.5,91C 31.1639,92.0299 30.4972,92.5299 29.5,92.5C 28.5416,92.0472 27.7083,91.3805 27,90.5C 25.5624,86.9749 24.0624,83.6415 22.5,80.5C 22.3359,77.8127 22.5026,75.146 23,72.5C 24.5633,68.7751 26.0633,65.1085 27.5,61.5C 29.0828,59.3374 30.4161,57.0041 31.5,54.5C 33.9034,47.7542 37.9034,42.0875 43.5,37.5C 44.6069,39.8466 46.2736,40.18 48.5,38.5C 49.2891,38.2172 49.9558,37.7172 50.5,37C 49.2941,35.9823 49.6274,35.4823 51.5,35.5C 54.7665,37.1098 57.7665,36.7765 60.5,34.5C 62.7273,35.0525 65.0607,35.0525 67.5,34.5C 67.5,35.8333 67.5,37.1667 67.5,38.5 Z"/></g>
<g><path style="opacity:1" fill="#d6f8ec" d="M 62.5,59.5 C 63.1667,59.5 63.5,59.8333 63.5,60.5C 63.5852,61.9953 62.9185,62.9953 61.5,63.5C 60.1908,61.7605 60.5241,60.4271 62.5,59.5 Z"/></g>
<g><path style="opacity:1" fill="#d6f5dd" d="M 66.5,55.5 C 65.0821,57.3079 63.0821,57.9746 60.5,57.5C 61.9196,54.6511 63.9196,53.9844 66.5,55.5 Z"/></g>
<g><path style="opacity:1" fill="#cbf2d0" d="M 54.5,49.5 C 55.5,49.5 56.5,49.5 57.5,49.5C 57.5,50.5 57.5,51.5 57.5,52.5C 54.5065,52.8543 53.5065,51.8543 54.5,49.5 Z"/></g>
<g><path style="opacity:1" fill="#bbe4c9" d="M 33.5,89.5 C 32.5655,90.5676 32.2322,91.901 32.5,93.5C 31.209,93.7373 30.209,93.404 29.5,92.5C 30.4972,92.5299 31.1639,92.0299 31.5,91C 29.9108,88.4884 28.5775,85.8217 27.5,83C 27.8333,82.5 28.1667,82 28.5,81.5C 29.6735,84.522 31.3401,87.1887 33.5,89.5 Z"/></g>
<g><path style="opacity:1" fill="#24826a" d="M 175.5,74.5 C 176.117,74.6107 176.617,74.944 177,75.5C 177.667,85.8333 177.667,96.1667 177,106.5C 176.617,107.056 176.117,107.389 175.5,107.5C 176.806,96.5043 176.806,85.5043 175.5,74.5 Z"/></g>
<g><path style="opacity:1" fill="#436db4" d="M 47.5,147.5 C 46.9569,147.56 46.6236,147.893 46.5,148.5C 54.4723,149.498 62.4723,149.831 70.5,149.5C 70.5,152.833 70.5,156.167 70.5,159.5C 57.5,159.5 44.5,159.5 31.5,159.5C 31.5,155.167 31.5,150.833 31.5,146.5C 40.4918,138.008 49.3251,129.342 58,120.5C 57.6476,114.045 54.1476,111.545 47.5,113C 46.9558,113.717 46.2891,114.217 45.5,114.5C 43.8235,115.183 43.1568,116.517 43.5,118.5C 42.1667,118.5 40.8333,118.5 39.5,118.5C 39.4943,114.83 41.161,112.163 44.5,110.5C 43.1667,109.167 41.8333,109.167 40.5,110.5C 36.6002,120.087 34.6002,119.754 34.5,109.5C 36.7252,106.111 39.7252,103.611 43.5,102C 50.3846,100.902 57.0513,101.569 63.5,104C 71.0517,110.946 72.5517,119.113 68,128.5C 61.6496,135.35 54.8163,141.684 47.5,147.5 Z"/></g>
<g><path style="opacity:1" fill="#363065" d="M 8.5,102.5 C 12.8333,102.5 17.1667,102.5 21.5,102.5C 21.5,121.833 21.5,141.167 21.5,160.5C 17.1667,160.5 12.8333,160.5 8.5,160.5C 8.5,141.167 8.5,121.833 8.5,102.5 Z"/></g>
<g><path style="opacity:1" fill="#312b77" d="M 9.5,103.5 C 13.1667,103.5 16.8333,103.5 20.5,103.5C 20.5,122.167 20.5,140.833 20.5,159.5C 16.8333,159.5 13.1667,159.5 9.5,159.5C 9.5,140.833 9.5,122.167 9.5,103.5 Z"/></g>
<g><path style="opacity:1" fill="#312b75" d="M 140.5,102.5 C 140.5,117.167 140.5,131.833 140.5,146.5C 147.982,147.492 155.648,147.825 163.5,147.5C 163.5,151.5 163.5,155.5 163.5,159.5C 151.5,159.5 139.5,159.5 127.5,159.5C 127.5,140.5 127.5,121.5 127.5,102.5C 131.833,102.5 136.167,102.5 140.5,102.5 Z"/></g>
<g><path style="opacity:1" fill="#342d75" d="M 93.5,100.5 C 102.363,99.3823 110.363,101.382 117.5,106.5C 114.904,110.019 112.071,113.352 109,116.5C 103.494,111.802 97.8275,111.469 92,115.5C 90.9595,118.636 91.7928,121.136 94.5,123C 99.1667,124.667 103.833,126.333 108.5,128C 114.642,130.461 117.642,134.961 117.5,141.5C 117.997,150.016 114.33,155.85 106.5,159C 98.8061,162.272 91.1394,162.272 83.5,159C 80.4245,158.089 78.0911,156.256 76.5,153.5C 79.1667,150.167 82.1667,147.167 85.5,144.5C 91.1648,150.191 97.3315,150.858 104,146.5C 104.944,143.653 104.444,141.153 102.5,139C 96.4324,136.866 90.4324,134.533 84.5,132C 78.3603,125.946 76.8603,118.78 80,110.5C 83.5308,105.795 88.0308,102.462 93.5,100.5 Z"/></g>
<g><path style="opacity:1" fill="#4871af" d="M 34.5,109.5 C 34.6002,119.754 36.6002,120.087 40.5,110.5C 41.8333,109.167 43.1667,109.167 44.5,110.5C 41.161,112.163 39.4943,114.83 39.5,118.5C 40.8333,118.5 42.1667,118.5 43.5,118.5C 43.1568,116.517 43.8235,115.183 45.5,114.5C 44.962,116.117 44.6287,117.784 44.5,119.5C 40.1667,119.5 35.8333,119.5 31.5,119.5C 31.32,115.714 32.32,112.381 34.5,109.5 Z"/></g>
<g><path style="opacity:1" fill="#807d9a" d="M 140.5,102.5 C 136.167,102.5 131.833,102.5 127.5,102.5C 127.5,121.5 127.5,140.5 127.5,159.5C 127.5,159.833 127.5,160.167 127.5,160.5C 126.503,141.007 126.17,121.34 126.5,101.5C 131.363,101.181 136.03,101.514 140.5,102.5 Z"/></g>
<g><path style="opacity:1" fill="#a9b4bb" d="M 159.5,142.5 C 164.64,143.488 169.974,143.821 175.5,143.5C 169.987,144.816 164.32,144.816 158.5,143.5C 158.624,142.893 158.957,142.56 159.5,142.5 Z"/></g>
<g><path style="opacity:1" fill="#7490b9" d="M 47.5,147.5 C 55.3159,148.492 63.3159,148.826 71.5,148.5C 71.5,152.167 71.5,155.833 71.5,159.5C 71.1667,159.5 70.8333,159.5 70.5,159.5C 70.5,156.167 70.5,152.833 70.5,149.5C 62.4723,149.831 54.4723,149.498 46.5,148.5C 46.6236,147.893 46.9569,147.56 47.5,147.5 Z"/></g>
<g><path style="opacity:1" fill="#bcc2d3" d="M 31.5,146.5 C 31.5,150.833 31.5,155.167 31.5,159.5C 44.5,159.5 57.5,159.5 70.5,159.5C 70.8333,159.5 71.1667,159.5 71.5,159.5C 58.0102,160.496 44.3435,160.829 30.5,160.5C 30.1805,155.637 30.5139,150.97 31.5,146.5 Z"/></g>
<g><path style="opacity:1" fill="#5e5a82" d="M 140.5,146.5 C 148.5,146.5 156.5,146.5 164.5,146.5C 164.5,151.167 164.5,155.833 164.5,160.5C 152.167,160.5 139.833,160.5 127.5,160.5C 127.5,160.167 127.5,159.833 127.5,159.5C 139.5,159.5 151.5,159.5 163.5,159.5C 163.5,155.5 163.5,151.5 163.5,147.5C 155.648,147.825 147.982,147.492 140.5,146.5 Z"/></g>
<g><path style="opacity:1" fill="#5e5b72" d="M 67.5,171.5 C 64.0897,171.384 62.7564,173.05 63.5,176.5C 62.3871,175.054 62.2204,173.387 63,171.5C 64.6155,170.199 66.1155,170.199 67.5,171.5 Z"/></g>
<g><path style="opacity:1" fill="#4f4c64" d="M 112.5,168.5 C 113.309,169.469 114.309,170.302 115.5,171C 113.901,172.786 113.067,174.953 113,177.5C 112.122,174.356 111.955,171.356 112.5,168.5 Z"/></g>
<g><path style="opacity:1" fill="#63607d" d="M 38.5,170.5 C 40.1992,170.34 41.8659,170.506 43.5,171C 40.1206,171.711 38.6206,173.878 39,177.5C 38.5034,175.19 38.3367,172.857 38.5,170.5 Z"/></g>
<g><path style="opacity:1" fill="#f8f6fd" d="M 67.5,171.5 C 67.5,173.167 67.5,174.833 67.5,176.5C 66.1667,176.5 64.8333,176.5 63.5,176.5C 62.7564,173.05 64.0897,171.384 67.5,171.5 Z"/></g>
<g><path style="opacity:1" fill="#848294" d="M 70.5,170.5 C 72.1992,170.34 73.8659,170.506 75.5,171C 74.552,171.483 73.552,171.649 72.5,171.5C 72.7989,173.604 72.4656,175.604 71.5,177.5C 70.5258,175.257 70.1924,172.924 70.5,170.5 Z"/></g>
<g><path style="opacity:1" fill="#575272" d="M 106.5,173.5 C 105.596,172.791 105.263,171.791 105.5,170.5C 106.873,170.343 108.207,170.51 109.5,171C 107.881,171.236 106.881,172.069 106.5,173.5 Z"/></g>
<g><path style="opacity:1" fill="#65617e" d="M 154.5,170.5 C 160.158,169.679 161.825,171.846 159.5,177C 158.833,177.667 158.167,177.667 157.5,177C 160.303,174.778 160.137,172.945 157,171.5C 153.863,172.945 153.697,174.778 156.5,177C 155.551,177.617 154.718,177.451 154,176.5C 153.322,174.402 153.489,172.402 154.5,170.5 Z"/></g>
<g><path style="opacity:1" fill="#4b4568" d="M 21.5,168.5 C 22.3094,169.469 23.3094,170.302 24.5,171C 21.8333,173 21.8333,175 24.5,177C 23.552,177.483 22.552,177.649 21.5,177.5C 21.108,174.324 21.108,171.324 21.5,168.5 Z"/></g>
<g><path style="opacity:1" fill="#9392a6" d="M 54.5,168.5 C 56.1137,170.075 58.1137,170.741 60.5,170.5C 60.8076,172.924 60.4742,175.257 59.5,177.5C 58.5344,175.604 58.2011,173.604 58.5,171.5C 57.5,171.5 56.5,171.5 55.5,171.5C 55.1412,173.766 55.8078,175.599 57.5,177C 56.552,177.483 55.552,177.649 54.5,177.5C 54.108,174.324 54.108,171.324 54.5,168.5 Z"/></g>
<g><path style="opacity:1" fill="#625c80" d="M 133.5,168.5 C 134.309,169.469 135.309,170.302 136.5,171C 133.833,173 133.833,175 136.5,177C 136,177.5 135.5,178 135,178.5C 134.196,175.804 133.029,173.304 131.5,171C 132.756,170.583 133.423,169.75 133.5,168.5 Z"/></g>
<g><path style="opacity:1" fill="#625d7a" d="M 30.5,171.5 C 31.404,172.209 31.7373,173.209 31.5,174.5C 29.8008,174.34 28.1341,174.506 26.5,175C 27.8646,176.682 29.3646,176.849 31,175.5C 30.2306,178.857 28.5639,179.19 26,176.5C 24.5005,171.503 26.0005,169.837 30.5,171.5 Z"/></g>
<g><path style="opacity:1" fill="#f7f5fb" d="M 30.5,171.5 C 29.7961,173.344 28.4628,173.844 26.5,173C 27.5634,171.812 28.8967,171.312 30.5,171.5 Z"/></g>
<g><path style="opacity:1" fill="#6b6689" d="M 33.5,170.5 C 37.554,170.21 38.054,170.877 35,172.5C 34.6667,174.167 34.3333,175.833 34,177.5C 33.5034,175.19 33.3367,172.857 33.5,170.5 Z"/></g>
<g><path style="opacity:1" fill="#575172" d="M 97.5,170.5 C 103.067,169.753 104.9,172.087 103,177.5C 101.333,169.5 99.6667,169.5 98,177.5C 97.5034,175.19 97.3367,172.857 97.5,170.5 Z"/></g>
<g><path style="opacity:1" fill="#565172" d="M 142.5,171.5 C 143.404,172.209 143.737,173.209 143.5,174.5C 141.219,174.077 139.552,174.744 138.5,176.5C 137.387,175.054 137.22,173.387 138,171.5C 139.616,170.199 141.116,170.199 142.5,171.5 Z"/></g>
<g><path style="opacity:1" fill="#f6f2fa" d="M 142.5,171.5 C 141.796,173.344 140.463,173.844 138.5,173C 139.563,171.812 140.897,171.312 142.5,171.5 Z"/></g>
<g><path style="opacity:1" fill="#8f8aa7" d="M 151.5,165.5 C 152.376,165.369 153.043,165.702 153.5,166.5C 151.525,167.749 151.191,169.249 152.5,171C 151.887,173.147 151.221,175.314 150.5,177.5C 147.69,173.12 148.024,169.12 151.5,165.5 Z"/></g>
<g><path style="opacity:1" fill="#565266" d="M 162.5,170.5 C 166.554,170.21 167.054,170.877 164,172.5C 163.667,174.167 163.333,175.833 163,177.5C 162.503,175.19 162.337,172.857 162.5,170.5 Z"/></g>
<g><path style="opacity:1" fill="#68647b" d="M 106.5,173.5 C 109.166,173.066 110.333,174.066 110,176.5C 108.855,175.364 107.688,174.364 106.5,173.5 Z"/></g>
<g><path style="opacity:1" fill="#4e4a69" d="M 120.5,168.5 C 121.309,169.469 122.309,170.302 123.5,171C 120.833,173 120.833,175 123.5,177C 122.552,177.483 121.552,177.649 120.5,177.5C 120.108,174.324 120.108,171.324 120.5,168.5 Z"/></g>
<g><path style="opacity:1" fill="#64607c" d="M 12.5,170.5 C 14.5,170.5 16.5,170.5 18.5,170.5C 18.6633,172.857 18.4966,175.19 18,177.5C 17.5045,175.527 17.3379,173.527 17.5,171.5C 16.1779,171.33 15.0113,171.663 14,172.5C 13.6667,174.167 13.3333,175.833 13,177.5C 12.5034,175.19 12.3367,172.857 12.5,170.5 Z"/></g>
<g><path style="opacity:1" fill="#6e6a83" d="M 47.5,174.5 C 51.2229,173.206 51.2229,172.039 47.5,171C 48.8333,170.333 50.1667,170.333 51.5,171C 52.4231,173.041 52.7564,175.208 52.5,177.5C 50.5,177.5 48.5,177.5 46.5,177.5C 46.2627,176.209 46.596,175.209 47.5,174.5 Z"/></g>
<g><path style="opacity:1" fill="#f7f0fe" d="M 47.5,174.5 C 48.675,174.281 49.675,174.614 50.5,175.5C 48.9483,176.798 47.9483,176.465 47.5,174.5 Z"/></g>
<g><path style="opacity:1" fill="#807d96" d="M 67.5,171.5 C 69.676,172.713 70.0093,174.38 68.5,176.5C 66.7015,177.788 65.0348,177.788 63.5,176.5C 64.8333,176.5 66.1667,176.5 67.5,176.5C 67.5,174.833 67.5,173.167 67.5,171.5 Z"/></g>
<g><path style="opacity:1" fill="#8d899d" d="M 79.5,171.5 C 80.8845,170.199 82.3845,170.199 84,171.5C 84.4955,173.473 84.6621,175.473 84.5,177.5C 82.54,178.138 80.7067,178.138 79,177.5C 78.3111,174.671 79.4778,173.004 82.5,172.5C 81.675,171.614 80.675,171.281 79.5,171.5 Z"/></g>
<g><path style="opacity:1" fill="#676282" d="M 129.5,170.5 C 130.468,172.607 130.802,174.941 130.5,177.5C 128.801,177.66 127.134,177.494 125.5,177C 129.03,176.328 130.363,174.162 129.5,170.5 Z"/></g>
<g><path style="opacity:1" fill="#75718d" d="M 138.5,176.5 C 140.446,176.193 142.113,176.193 143.5,176.5C 141.701,177.788 140.035,177.788 138.5,176.5 Z"/></g>
<g><path style="opacity:1" fill="#838098" d="M 10.5,183.5 C 17.0075,184.742 17.0075,185.408 10.5,185.5C 10.281,186.675 10.6143,187.675 11.5,188.5C 15.7405,189.715 16.4072,191.882 13.5,195C 12.0563,195.781 10.723,195.614 9.5,194.5C 10.6888,193.571 12.0222,193.238 13.5,193.5C 13.719,192.325 13.3857,191.325 12.5,190.5C 8.14849,189.119 7.48183,186.786 10.5,183.5 Z"/></g>
<g><path style="opacity:1" fill="#7b7895" d="M 111.5,187.5 C 113.144,187.286 114.644,187.62 116,188.5C 117.67,195.18 115.67,196.846 110,193.5C 109.252,191.16 109.752,189.16 111.5,187.5 Z"/></g>
<g><path style="opacity:1" fill="#8c8a9b" d="M 46.5,187.5 C 52.2038,187.146 54.0371,189.813 52,195.5C 50.7633,186.223 49.2633,186.223 47.5,195.5C 46.52,192.914 46.1866,190.247 46.5,187.5 Z"/></g>
<g><path style="opacity:1" fill="#48426c" d="M 64.5,188.5 C 64.5,188.833 64.5,189.167 64.5,189.5C 63.2801,191.05 63.2801,192.716 64.5,194.5C 63.2132,193.129 62.5465,191.295 62.5,189C 62.6667,187.167 62.8333,185.333 63,183.5C 63.1981,185.382 63.6981,187.048 64.5,188.5 Z"/></g>
<g><path style="opacity:1" fill="#8f8da8" d="M 68.5,193.5 C 68.8333,190.5 67.5,189.167 64.5,189.5C 64.5,189.167 64.5,188.833 64.5,188.5C 65.6719,187.295 67.0052,187.295 68.5,188.5C 69.7879,190.299 69.7879,191.965 68.5,193.5 Z"/></g>
<g><path style="opacity:1" fill="#9692ad" d="M 86.5,184.5 C 88.3878,186.988 89.0545,189.988 88.5,193.5C 89.9778,193.238 91.3112,193.571 92.5,194.5C 90.604,195.466 88.604,195.799 86.5,195.5C 86.5,191.833 86.5,188.167 86.5,184.5 Z"/></g>
<g><path style="opacity:1" fill="#726e8c" d="M 158.5,190.5 C 158.565,190.938 158.399,191.272 158,191.5C 156.313,187.551 154.813,187.551 153.5,191.5C 154.13,194.647 155.797,195.313 158.5,193.5C 157.341,195.377 155.674,195.877 153.5,195C 152.409,192.936 152.242,190.769 153,188.5C 155.811,186.82 157.644,187.487 158.5,190.5 Z"/></g>
<g><path style="opacity:1" fill="#9692ad" d="M 31.5,185.5 C 35.0537,186.853 35.387,188.687 32.5,191C 32.4393,192.711 33.1059,194.044 34.5,195C 33.5509,195.617 32.7175,195.451 32,194.5C 31.5065,192.866 31.3398,191.199 31.5,189.5C 30.1266,189.343 28.7932,189.51 27.5,190C 29.5268,191.396 29.8602,193.062 28.5,195C 23.3803,194.54 23.3803,193.874 28.5,193C 23.0306,189.739 23.5306,187.573 30,186.5C 31.1068,187.712 31.6068,187.379 31.5,185.5 Z"/></g>
<g><path style="opacity:1" fill="#f0eff7" d="M 64.5,189.5 C 67.5,189.167 68.8333,190.5 68.5,193.5C 67.1667,193.833 65.8333,194.167 64.5,194.5C 63.2801,192.716 63.2801,191.05 64.5,189.5 Z"/></g>
<g><path style="opacity:1" fill="#f2f0fa" d="M 112.5,188.5 C 115.084,189.048 116.084,190.715 115.5,193.5C 110.516,193.856 109.516,192.189 112.5,188.5 Z"/></g>
<g><path style="opacity:1" fill="#8e8ba4" d="M 18.5,194.5 C 17.0069,193.688 16.3402,192.355 16.5,190.5C 16.8333,189.5 17.1667,188.5 17.5,187.5C 18.4742,189.743 18.8076,192.076 18.5,194.5 Z"/></g>
<g><path style="opacity:1" fill="#8e8aa3" d="M 75.5,193.5 C 73.8429,189.644 75.1763,187.811 79.5,188C 80.3567,188.689 81.0233,189.522 81.5,190.5C 79.0251,190.964 77.0251,191.964 75.5,193.5 Z"/></g>
<g><path style="opacity:1" fill="#9491ab" d="M 94.5,187.5 C 96.1439,187.286 97.6439,187.62 99,188.5C 99.4966,190.81 99.6633,193.143 99.5,195.5C 97.5328,195.739 95.6995,195.406 94,194.5C 93.3111,191.671 94.4778,190.004 97.5,189.5C 96.2839,188.904 94.9506,188.737 93.5,189C 94.056,188.617 94.3893,188.117 94.5,187.5 Z"/></g>
<g><path style="opacity:1" fill="#a4a1b4" d="M 143.5,187.5 C 145.833,187.5 148.167,187.5 150.5,187.5C 150.353,197.277 149.353,197.611 147.5,188.5C 145.976,190.483 144.976,192.816 144.5,195.5C 143.52,192.914 143.187,190.247 143.5,187.5 Z"/></g>
<g><path style="opacity:1" fill="#817e98" d="M 55.5,187.5 C 57.1439,187.286 58.6439,187.62 60,188.5C 60.6667,190.833 60.6667,193.167 60,195.5C 58.4173,195.507 56.7506,195.174 55,194.5C 54.3111,191.671 55.4778,190.004 58.5,189.5C 57.2839,188.904 55.9506,188.737 54.5,189C 55.056,188.617 55.3893,188.117 55.5,187.5 Z"/></g>
<g><path style="opacity:1" fill="#77748f" d="M 136.5,193.5 C 135.212,191.965 135.212,190.299 136.5,188.5C 140.959,187.123 142.793,188.789 142,193.5C 139.91,196.017 138.077,196.017 136.5,193.5 Z"/></g>
<g><path style="opacity:1" fill="#f4f3fa" d="M 136.5,193.5 C 136.5,192.167 136.5,190.833 136.5,189.5C 141.727,189.284 142.56,190.951 139,194.5C 138.329,193.748 137.496,193.414 136.5,193.5 Z"/></g>
<g><path style="opacity:1" fill="#c9c6d7" d="M 158.5,190.5 C 159.167,189.833 159.833,189.167 160.5,188.5C 161.206,190.672 162.206,192.672 163.5,194.5C 162.151,195.797 160.818,195.63 159.5,194C 159.833,193.667 160.167,193.333 160.5,193C 159.563,192.308 158.897,192.475 158.5,193.5C 155.797,195.313 154.13,194.647 153.5,191.5C 154.813,187.551 156.313,187.551 158,191.5C 158.399,191.272 158.565,190.938 158.5,190.5 Z"/></g>
<g><path style="opacity:1" fill="#716b91" d="M 39.5,194.5 C 37.6227,195.928 36.2894,195.428 35.5,193C 36.2321,191.235 37.5654,190.068 39.5,189.5C 38.7261,188.289 37.8928,188.289 37,189.5C 36.5683,188.4 37.0683,187.733 38.5,187.5C 39.4419,187.608 40.2753,187.941 41,188.5C 41.6667,190.833 41.6667,193.167 41,195.5C 40.6174,194.944 40.1174,194.611 39.5,194.5 Z"/></g>
<g><path style="opacity:1" fill="#dad8e8" d="M 39.5,194.5 C 35.9251,193.793 35.7584,192.793 39,191.5C 40.6833,192.176 40.8499,193.176 39.5,194.5 Z"/></g>
<g><path style="opacity:1" fill="#5a586e" d="M 118.5,187.5 C 119.289,187.783 119.956,188.283 120.5,189C 119.751,190.734 119.251,192.567 119,194.5C 118.503,192.19 118.337,189.857 118.5,187.5 Z"/></g>
<g><path style="opacity:1" fill="#9d9baf" d="M 125.5,190.5 C 127.493,191.472 127.826,192.805 126.5,194.5C 124.907,195.867 123.574,195.534 122.5,193.5C 123.188,192.145 124.188,191.145 125.5,190.5 Z"/></g>
<g><path style="opacity:1" fill="#666183" d="M 126.5,194.5 C 127.826,192.805 127.493,191.472 125.5,190.5C 126.239,190.631 126.906,190.464 127.5,190C 126.167,189.667 124.833,189.333 123.5,189C 126.667,186.67 128.333,187.504 128.5,191.5C 128.36,193.03 127.693,194.03 126.5,194.5 Z"/></g>
<g><path style="opacity:1" fill="#484466" d="M 131.5,185.5 C 132.638,188.304 132.805,191.304 132,194.5C 131.122,191.356 130.955,188.356 131.5,185.5 Z"/></g>
<g><path style="opacity:1" fill="#78748b" d="M 163.5,194.5 C 162.206,192.672 161.206,190.672 160.5,188.5C 161.708,187.218 163.042,187.218 164.5,188.5C 163.603,188.669 162.603,189.002 161.5,189.5C 163.053,190.439 164.387,191.606 165.5,193C 165.164,194.03 164.497,194.53 163.5,194.5 Z"/></g>
<g><path style="opacity:1" fill="#9f9cb9" d="M 18.5,194.5 C 19.4959,194.586 20.3292,194.252 21,193.5C 21.1922,191.423 21.6922,189.423 22.5,187.5C 23.48,190.086 23.8134,192.753 23.5,195.5C 21.5853,195.784 19.9187,195.451 18.5,194.5 Z"/></g>
<g><path style="opacity:1" fill="#7d7a96" d="M 68.5,193.5 C 67.4617,195.519 66.1284,195.853 64.5,194.5C 65.8333,194.167 67.1667,193.833 68.5,193.5 Z"/></g>
<g><path style="opacity:1" fill="#8d89ac" d="M 75.5,193.5 C 77.1992,193.34 78.8659,193.506 80.5,194C 78.4153,196.139 76.7487,195.972 75.5,193.5 Z"/></g>
<g><path style="opacity:1" fill="#797692" d="M 103.5,194.5 C 102.213,193.129 101.547,191.295 101.5,189C 101.621,182.119 102.121,181.952 103,188.5C 106.042,187.014 107.875,188.014 108.5,191.5C 107.886,194.842 106.22,195.842 103.5,194.5 Z"/></g>
<g><path style="opacity:1" fill="#f3f2fb" d="M 103.5,194.5 C 102.699,192.958 102.366,191.292 102.5,189.5C 108.671,190.162 109.005,191.829 103.5,194.5 Z"/></g>
</svg>
