<?xml version="1.0" encoding="UTF-8"?>
<!DOCTYPE svg PUBLIC "-//W3C//DTD SVG 1.1//EN" "http://www.w3.org/Graphics/SVG/1.1/DTD/svg11.dtd">
<svg xmlns="http://www.w3.org/2000/svg" version="1.1" width="336px" height="362px" style="shape-rendering:geometricPrecision; text-rendering:geometricPrecision; image-rendering:optimizeQuality; fill-rule:evenodd; clip-rule:evenodd" xmlns:xlink="http://www.w3.org/1999/xlink">
<g><path style="opacity:1" fill="#000001" d="M -0.5,-0.5 C 50.8333,-0.5 102.167,-0.5 153.5,-0.5C 82.6401,8.84986 34.1401,46.8499 8,113.5C 4.82914,125.214 1.9958,136.88 -0.5,148.5C -0.5,98.8333 -0.5,49.1667 -0.5,-0.5 Z"/></g>
<g><path style="opacity:1" fill="#000001" d="M 179.5,-0.5 C 231.5,-0.5 283.5,-0.5 335.5,-0.5C 335.5,48.8333 335.5,98.1667 335.5,147.5C 334.38,142.118 333.047,136.784 331.5,131.5C 317.712,75.527 284.379,35.6936 231.5,12C 214.668,5.24242 197.335,1.07575 179.5,-0.5 Z"/></g>
<g><path style="opacity:1" fill="#406bb1" d="M 153.5,-0.5 C 162.167,-0.5 170.833,-0.5 179.5,-0.5C 197.335,1.07575 214.668,5.24242 231.5,12C 284.379,35.6936 317.712,75.527 331.5,131.5C 332.202,139.711 333.535,147.711 335.5,155.5C 335.5,164.833 335.5,174.167 335.5,183.5C 333.683,191.302 332.183,199.302 331,207.5C 325.705,226.723 317.705,244.723 307,261.5C 296.243,262.653 285.41,262.82 274.5,262C 284.471,250.927 292.138,238.427 297.5,224.5C 300.444,220.364 302.444,215.697 303.5,210.5C 305.344,208.721 306.01,206.388 305.5,203.5C 307.074,201.898 307.741,199.898 307.5,197.5C 307.5,195.5 307.5,193.5 307.5,191.5C 308.167,191.5 308.833,191.5 309.5,191.5C 312.244,180.459 313.077,169.126 312,157.5C 311.768,156.263 311.268,155.263 310.5,154.5C 310.451,147.769 309.118,141.436 306.5,135.5C 306.095,130.999 305.095,126.666 303.5,122.5C 303.88,120.302 303.213,118.635 301.5,117.5C 301.657,116.127 301.49,114.793 301,113.5C 300.098,111.569 298.931,109.903 297.5,108.5C 297.672,107.508 297.338,106.842 296.5,106.5C 292.58,96.311 286.914,87.311 279.5,79.5C 279.672,78.5084 279.338,77.8417 278.5,77.5C 277.149,73.973 274.815,71.3063 271.5,69.5C 271.5,69.1667 271.5,68.8333 271.5,68.5C 270.135,66.1402 268.135,64.4735 265.5,63.5C 228.006,29.7058 184.339,17.8725 134.5,28C 111.587,33.7881 91.2532,44.2881 73.5,59.5C 71.111,59.9788 69.4443,61.3121 68.5,63.5C 65.6333,63.3692 63.9666,64.7026 63.5,67.5C 60.6472,68.8331 58.9805,71.1665 58.5,74.5C 53.7819,78.232 50.1153,82.8986 47.5,88.5C 46.0937,88.9731 45.427,89.9731 45.5,91.5C 44.5041,91.4142 43.6708,91.7476 43,92.5C 38.8998,97.0355 36.7332,102.369 36.5,108.5C 33.3025,111.733 31.6358,115.733 31.5,120.5C 30.2794,121.028 29.1127,121.695 28,122.5C 27.3583,126.491 26.8583,130.491 26.5,134.5C 26.1667,138.5 25.8333,142.5 25.5,146.5C 25.5,148.167 25.5,149.833 25.5,151.5C 24.5062,160.986 24.1729,170.652 24.5,180.5C 16.5,180.5 8.5,180.5 0.5,180.5C 0.784479,178.585 0.451145,176.919 -0.5,175.5C -0.5,166.5 -0.5,157.5 -0.5,148.5C 1.9958,136.88 4.82914,125.214 8,113.5C 34.1401,46.8499 82.6401,8.84986 153.5,-0.5 Z"/></g>
<g><path style="opacity:1" fill="#000102" d="M 265.5,63.5 C 263.901,63.2322 262.568,63.5655 261.5,64.5C 257.438,65.0623 255.271,67.3956 255,71.5C 252.419,74.789 249.086,76.789 245,77.5C 244.503,80.146 244.336,82.8127 244.5,85.5C 245.5,85.5 246.5,85.5 247.5,85.5C 247.5,86.8333 247.5,88.1667 247.5,89.5C 241.767,88.8911 236.6,90.2245 232,93.5C 230.241,105.067 235.074,109.234 246.5,106C 247.833,105.333 249.167,104.667 250.5,104C 252.71,100.062 254.544,95.8958 256,91.5C 258.166,89.8787 260.666,89.0454 263.5,89C 264.685,87.647 266.019,86.4803 267.5,85.5C 272.403,88.7794 277.403,91.7794 282.5,94.5C 280.955,95.4519 279.288,95.7852 277.5,95.5C 277.077,98.2431 278.244,99.5765 281,99.5C 284.808,99.5309 286.641,97.6976 286.5,94C 286.441,92.5643 286.108,91.231 285.5,90C 282.417,88.8608 279.417,87.5275 276.5,86C 273.388,81.9958 274.388,79.8291 279.5,79.5C 286.914,87.311 292.58,96.311 296.5,106.5C 294.744,107.552 294.077,109.219 294.5,111.5C 293.5,111.5 292.5,111.5 291.5,111.5C 285.511,110.74 279.511,110.073 273.5,109.5C 273.5,106.5 273.5,103.5 273.5,100.5C 264.758,100.848 256.758,103.348 249.5,108C 242.575,108.073 236.742,110.573 232,115.5C 231.667,119.167 231.333,122.833 231,126.5C 225.754,130.742 221.254,135.575 217.5,141C 217.943,144.437 219.943,146.104 223.5,146C 219.566,152.854 219.733,159.687 224,166.5C 229.167,171 234.333,175.5 239.5,180C 247.451,179.737 254.785,177.57 261.5,173.5C 263.342,173.277 265.175,172.943 267,172.5C 272.338,174.238 277.838,174.904 283.5,174.5C 283.334,178.514 283.501,182.514 284,186.5C 287.946,192.779 292.279,198.779 297,204.5C 297.667,206.5 297.667,208.5 297,210.5C 294.705,214.181 294.038,218.181 295,222.5C 295.383,223.056 295.883,223.389 296.5,223.5C 296.5,224.167 296.833,224.5 297.5,224.5C 292.138,238.427 284.471,250.927 274.5,262C 285.41,262.82 296.243,262.653 307,261.5C 317.705,244.723 325.705,226.723 331,207.5C 332.183,199.302 333.683,191.302 335.5,183.5C 335.5,242.833 335.5,302.167 335.5,361.5C 223.5,361.5 111.5,361.5 -0.5,361.5C -0.5,299.5 -0.5,237.5 -0.5,175.5C 0.451145,176.919 0.784479,178.585 0.5,180.5C 8.64991,181.493 16.9832,181.826 25.5,181.5C 25.5,171.5 25.5,161.5 25.5,151.5C 25.5,149.833 25.5,148.167 25.5,146.5C 26.1667,146.5 26.8333,146.5 27.5,146.5C 28.8593,151.916 30.6926,157.249 33,162.5C 35.1667,164.667 37.3333,166.833 39.5,169C 41.4727,169.495 43.4727,169.662 45.5,169.5C 45.2033,165.674 43.3699,162.674 40,160.5C 37.646,156.797 36.146,152.797 35.5,148.5C 36.5,148.5 37.5,148.5 38.5,148.5C 40.143,156.442 44.3097,162.776 51,167.5C 51.1554,169.856 51.1554,172.189 51,174.5C 54.5291,178.979 59.1958,180.646 65,179.5C 75.2329,181.054 76.8995,178.387 70,171.5C 66.9721,160.175 70.8054,152.008 81.5,147C 87.498,146.056 93.498,145.223 99.5,144.5C 99.3254,149.989 101.992,152.322 107.5,151.5C 106.171,147.073 106.337,142.739 108,138.5C 111.015,135.317 114.182,132.317 117.5,129.5C 120.135,119.253 125.969,111.253 135,105.5C 136.561,102.217 138.727,99.3834 141.5,97C 143.126,97.1953 144.793,97.1953 146.5,97C 147.337,95.9887 147.67,94.8221 147.5,93.5C 145.5,93.5 143.5,93.5 141.5,93.5C 141.36,91.8762 142.027,90.7096 143.5,90C 146.338,89.6305 149.171,89.7971 152,90.5C 154.379,90.5175 156.546,89.8509 158.5,88.5C 159.051,90.4132 159.218,92.4132 159,94.5C 160.011,95.3366 161.178,95.67 162.5,95.5C 164.948,96.4731 167.615,96.8064 170.5,96.5C 170.768,94.901 170.434,93.5676 169.5,92.5C 167.397,91.3501 165.397,90.0167 163.5,88.5C 165.041,86.796 166.375,84.9626 167.5,83C 167.138,81.7753 166.638,80.6086 166,79.5C 160.945,78.1062 158.611,74.7728 159,69.5C 155.457,68.8321 152.29,69.8321 149.5,72.5C 147.656,70.7211 146.99,68.3878 147.5,65.5C 146.167,65.5 144.833,65.5 143.5,65.5C 140.15,65.335 136.817,65.5017 133.5,66C 133,66.5 132.5,67 132,67.5C 131.667,71.5 131.333,75.5 131,79.5C 126.52,81.9781 123.52,85.6448 122,90.5C 121.184,91.8228 120.017,92.4894 118.5,92.5C 118.777,89.5525 118.444,86.7191 117.5,84C 114.518,83.502 111.518,83.3354 108.5,83.5C 104.172,81.8426 102.838,78.8426 104.5,74.5C 109.833,70.5 115.167,66.5 120.5,62.5C 122.217,63.6685 122.884,65.3352 122.5,67.5C 125.14,67.046 127.473,65.8793 129.5,64C 130.212,62.575 130.379,61.075 130,59.5C 134.293,54.6862 139.626,51.6862 146,50.5C 148.175,50.8339 150.008,51.8339 151.5,53.5C 147.878,55.7867 144.545,58.4534 141.5,61.5C 146.792,62.4948 152.125,62.8282 157.5,62.5C 157.328,60.5082 157.995,58.8415 159.5,57.5C 161.917,56.9278 164.084,55.9278 166,54.5C 166.847,51.5096 165.68,50.1762 162.5,50.5C 162.607,48.0968 161.607,46.2635 159.5,45C 153.168,41.9081 146.502,40.9081 139.5,42C 136.102,43.3571 133.102,45.1904 130.5,47.5C 129.532,49.6074 129.198,51.9407 129.5,54.5C 128.167,54.5 126.833,54.5 125.5,54.5C 124.12,54.0377 123.453,53.0377 123.5,51.5C 124.406,49.2525 125.739,47.2525 127.5,45.5C 123.399,44.6152 119.399,45.1152 115.5,47C 113.963,48.1096 113.297,49.6096 113.5,51.5C 114.833,51.5 116.167,51.5 117.5,51.5C 117.5,52.8333 117.5,54.1667 117.5,55.5C 113.774,55.5737 110.774,57.0737 108.5,60C 105.854,60.4974 103.187,60.6641 100.5,60.5C 100.579,59.0695 100.246,57.7362 99.5,56.5C 105.211,56.3167 109.211,53.6501 111.5,48.5C 110.833,48.1667 110.167,47.8333 109.5,47.5C 107.102,48.389 105.102,49.889 103.5,52C 102.5,52.1667 101.5,52.3333 100.5,52.5C 97.8576,51.3016 95.1909,50.4683 92.5,50C 89.9708,52.0285 87.3041,53.8619 84.5,55.5C 83.5481,57.0453 83.2148,58.712 83.5,60.5C 86.8984,60.1796 90.2317,60.513 93.5,61.5C 91.3064,62.632 88.973,63.2986 86.5,63.5C 82.3756,61.6051 78.0423,60.6051 73.5,60.5C 73.5,60.1667 73.5,59.8333 73.5,59.5C 91.2532,44.2881 111.587,33.7881 134.5,28C 184.339,17.8725 228.006,29.7058 265.5,63.5 Z"/></g>
<g><path style="opacity:1" fill="#138943" d="M 108.5,83.5 C 108.5,83.8333 108.5,84.1667 108.5,84.5C 104.024,86.6801 98.6903,88.3467 92.5,89.5C 92.5417,92.3987 93.0417,95.0654 94,97.5C 93.6667,97.8333 93.3333,98.1667 93,98.5C 91.5823,95.999 90.5823,96.3323 90,99.5C 89.3021,98.3094 88.4687,97.3094 87.5,96.5C 90.6973,95.8876 92.0306,93.8876 91.5,90.5C 88.9412,90.3896 86.6079,91.0562 84.5,92.5C 85.1272,93.4168 85.4606,94.4168 85.5,95.5C 83.3531,94.0679 83.0198,92.2345 84.5,90C 82.1547,88.2172 79.488,87.2172 76.5,87C 77.6872,85.9805 78.6872,84.8139 79.5,83.5C 76.8841,82.9215 76.8841,81.4215 79.5,79C 78.1667,73 76.8333,73 75.5,79C 74.2068,79.49 72.8734,79.6567 71.5,79.5C 72.531,78.7515 73.6976,78.0848 75,77.5C 75.5908,76.5165 75.2575,75.8499 74,75.5C 72.1284,76.0682 70.2951,76.7349 68.5,77.5C 67.7025,77.9569 67.3691,78.6236 67.5,79.5C 66.8485,78.9094 66.1818,78.2427 65.5,77.5C 63.3164,81.5259 61.8164,81.1926 61,76.5C 60.3292,75.7476 59.4959,75.4142 58.5,75.5C 58.5,75.1667 58.5,74.8333 58.5,74.5C 59.9541,72.5635 61.6207,70.8968 63.5,69.5C 64.1667,69.8333 64.8333,70.1667 65.5,70.5C 68.005,71.4967 70.6717,71.4967 73.5,70.5C 73.5,69.1667 73.5,67.8333 73.5,66.5C 71.7839,66.6287 70.1172,66.962 68.5,67.5C 68.0742,66.4721 68.0742,65.1388 68.5,63.5C 70.2879,62.6396 71.9545,61.6396 73.5,60.5C 78.0423,60.6051 82.3756,61.6051 86.5,63.5C 88.973,63.2986 91.3064,62.632 93.5,61.5C 90.2317,60.513 86.8984,60.1796 83.5,60.5C 83.2148,58.712 83.5481,57.0453 84.5,55.5C 87.3041,53.8619 89.9708,52.0285 92.5,50C 95.1909,50.4683 97.8576,51.3016 100.5,52.5C 101.5,52.3333 102.5,52.1667 103.5,52C 105.102,49.889 107.102,48.389 109.5,47.5C 110.167,47.8333 110.833,48.1667 111.5,48.5C 109.211,53.6501 105.211,56.3167 99.5,56.5C 100.246,57.7362 100.579,59.0695 100.5,60.5C 103.187,60.6641 105.854,60.4974 108.5,60C 110.774,57.0737 113.774,55.5737 117.5,55.5C 117.5,54.1667 117.5,52.8333 117.5,51.5C 116.167,51.5 114.833,51.5 113.5,51.5C 113.297,49.6096 113.963,48.1096 115.5,47C 119.399,45.1152 123.399,44.6152 127.5,45.5C 125.739,47.2525 124.406,49.2525 123.5,51.5C 123.453,53.0377 124.12,54.0377 125.5,54.5C 126.919,55.4511 128.585,55.7845 130.5,55.5C 130.5,52.8333 130.5,50.1667 130.5,47.5C 133.102,45.1904 136.102,43.3571 139.5,42C 146.502,40.9081 153.168,41.9081 159.5,45C 161.607,46.2635 162.607,48.0968 162.5,50.5C 165.68,50.1762 166.847,51.5096 166,54.5C 164.084,55.9278 161.917,56.9278 159.5,57.5C 157.995,58.8415 157.328,60.5082 157.5,62.5C 152.125,62.8282 146.792,62.4948 141.5,61.5C 144.545,58.4534 147.878,55.7867 151.5,53.5C 150.008,51.8339 148.175,50.8339 146,50.5C 139.626,51.6862 134.293,54.6862 130,59.5C 130.379,61.075 130.212,62.575 129.5,64C 127.473,65.8793 125.14,67.046 122.5,67.5C 122.884,65.3352 122.217,63.6685 120.5,62.5C 115.167,66.5 109.833,70.5 104.5,74.5C 102.838,78.8426 104.172,81.8426 108.5,83.5 Z"/></g>
<g><path style="opacity:1" fill="#05441e" d="M 130.5,47.5 C 130.5,50.1667 130.5,52.8333 130.5,55.5C 128.585,55.7845 126.919,55.4511 125.5,54.5C 126.833,54.5 128.167,54.5 129.5,54.5C 129.198,51.9407 129.532,49.6074 130.5,47.5 Z"/></g>
<g><path style="opacity:1" fill="#297f72" d="M 73.5,59.5 C 73.5,59.8333 73.5,60.1667 73.5,60.5C 71.9545,61.6396 70.2879,62.6396 68.5,63.5C 69.4443,61.3121 71.111,59.9788 73.5,59.5 Z"/></g>
<g><path style="opacity:1" fill="#246d6b" d="M 261.5,64.5 C 262.568,63.5655 263.901,63.2322 265.5,63.5C 268.135,64.4735 270.135,66.1402 271.5,68.5C 269.456,67.9688 267.789,66.8022 266.5,65C 264.866,64.5065 263.199,64.3398 261.5,64.5 Z"/></g>
<g><path style="opacity:1" fill="#0f552b" d="M 143.5,65.5 C 144.833,65.5 146.167,65.5 147.5,65.5C 146.99,68.3878 147.656,70.7211 149.5,72.5C 148.791,73.404 147.791,73.7373 146.5,73.5C 146.5,71.1667 146.5,68.8333 146.5,66.5C 145.209,66.7373 144.209,66.404 143.5,65.5 Z"/></g>
<g><path style="opacity:1" fill="#22755b" d="M 68.5,63.5 C 68.0742,65.1388 68.0742,66.4721 68.5,67.5C 67.3065,68.2719 66.3065,69.2719 65.5,70.5C 64.8333,70.1667 64.1667,69.8333 63.5,69.5C 63.5,68.8333 63.5,68.1667 63.5,67.5C 63.9666,64.7026 65.6333,63.3692 68.5,63.5 Z"/></g>
<g><path style="opacity:1" fill="#040c05" d="M 65.5,70.5 C 66.3065,69.2719 67.3065,68.2719 68.5,67.5C 70.1172,66.962 71.7839,66.6287 73.5,66.5C 73.5,67.8333 73.5,69.1667 73.5,70.5C 70.6717,71.4967 68.005,71.4967 65.5,70.5 Z"/></g>
<g><path style="opacity:1" fill="#168241" d="M 231.5,65.5 C 233.5,65.5 235.5,65.5 237.5,65.5C 237.302,71.3641 234.302,74.6974 228.5,75.5C 227.857,71.5669 228.857,68.2336 231.5,65.5 Z"/></g>
<g><path style="opacity:1" fill="#2f798d" d="M 63.5,67.5 C 63.5,68.1667 63.5,68.8333 63.5,69.5C 61.6207,70.8968 59.9541,72.5635 58.5,74.5C 58.9805,71.1665 60.6472,68.8331 63.5,67.5 Z"/></g>
<g><path style="opacity:1" fill="#168543" d="M 239.5,56.5 C 240.496,56.4142 241.329,56.7476 242,57.5C 243.615,63.4175 247.115,67.7508 252.5,70.5C 249.34,74.9556 245.006,76.6223 239.5,75.5C 238.907,72.4041 239.907,70.0708 242.5,68.5C 241.048,65.8785 238.881,64.2118 236,63.5C 235.833,62.6667 235.667,61.8333 235.5,61C 236.167,58.8495 237.5,57.3495 239.5,56.5 Z"/></g>
<g><path style="opacity:1" fill="#288072" d="M 271.5,69.5 C 274.815,71.3063 277.149,73.973 278.5,77.5C 276.31,76.1978 274.31,74.5311 272.5,72.5C 271.873,71.5832 271.539,70.5832 271.5,69.5 Z"/></g>
<g><path style="opacity:1" fill="#138843" d="M 261.5,64.5 C 263.199,64.3398 264.866,64.5065 266.5,65C 267.789,66.8022 269.456,67.9688 271.5,68.5C 271.5,68.8333 271.5,69.1667 271.5,69.5C 271.539,70.5832 271.873,71.5832 272.5,72.5C 274.31,74.5311 276.31,76.1978 278.5,77.5C 279.338,77.8417 279.672,78.5084 279.5,79.5C 274.388,79.8291 273.388,81.9958 276.5,86C 279.417,87.5275 282.417,88.8608 285.5,90C 286.108,91.231 286.441,92.5643 286.5,94C 286.641,97.6976 284.808,99.5309 281,99.5C 278.244,99.5765 277.077,98.2431 277.5,95.5C 279.288,95.7852 280.955,95.4519 282.5,94.5C 277.403,91.7794 272.403,88.7794 267.5,85.5C 266.019,86.4803 264.685,87.647 263.5,89C 260.666,89.0454 258.166,89.8787 256,91.5C 254.544,95.8958 252.71,100.062 250.5,104C 249.167,104.667 247.833,105.333 246.5,106C 235.074,109.234 230.241,105.067 232,93.5C 236.6,90.2245 241.767,88.8911 247.5,89.5C 247.5,88.1667 247.5,86.8333 247.5,85.5C 246.5,85.5 245.5,85.5 244.5,85.5C 244.336,82.8127 244.503,80.146 245,77.5C 249.086,76.789 252.419,74.789 255,71.5C 255.271,67.3956 257.438,65.0623 261.5,64.5 Z"/></g>
<g><path style="opacity:1" fill="#128c44" d="M 143.5,65.5 C 144.209,66.404 145.209,66.7373 146.5,66.5C 146.5,68.8333 146.5,71.1667 146.5,73.5C 147.791,73.7373 148.791,73.404 149.5,72.5C 152.29,69.8321 155.457,68.8321 159,69.5C 158.611,74.7728 160.945,78.1062 166,79.5C 166.638,80.6086 167.138,81.7753 167.5,83C 166.375,84.9626 165.041,86.796 163.5,88.5C 165.397,90.0167 167.397,91.3501 169.5,92.5C 169.5,93.5 169.5,94.5 169.5,95.5C 167.167,95.5 164.833,95.5 162.5,95.5C 161.178,95.67 160.011,95.3366 159,94.5C 159.218,92.4132 159.051,90.4132 158.5,88.5C 156.546,89.8509 154.379,90.5175 152,90.5C 149.171,89.7971 146.338,89.6305 143.5,90C 142.027,90.7096 141.36,91.8762 141.5,93.5C 143.5,93.5 145.5,93.5 147.5,93.5C 147.67,94.8221 147.337,95.9887 146.5,97C 144.793,97.1953 143.126,97.1953 141.5,97C 138.727,99.3834 136.561,102.217 135,105.5C 125.969,111.253 120.135,119.253 117.5,129.5C 114.182,132.317 111.015,135.317 108,138.5C 106.337,142.739 106.171,147.073 107.5,151.5C 101.992,152.322 99.3254,149.989 99.5,144.5C 93.498,145.223 87.498,146.056 81.5,147C 70.8054,152.008 66.9721,160.175 70,171.5C 76.8995,178.387 75.2329,181.054 65,179.5C 59.1958,180.646 54.5291,178.979 51,174.5C 51.1554,172.189 51.1554,169.856 51,167.5C 44.3097,162.776 40.143,156.442 38.5,148.5C 37.5,148.5 36.5,148.5 35.5,148.5C 36.146,152.797 37.646,156.797 40,160.5C 43.3699,162.674 45.2033,165.674 45.5,169.5C 43.4727,169.662 41.4727,169.495 39.5,169C 37.3333,166.833 35.1667,164.667 33,162.5C 30.6926,157.249 28.8593,151.916 27.5,146.5C 27.6865,141.155 28.0199,135.822 28.5,130.5C 30.4793,127.554 31.4793,124.221 31.5,120.5C 33.1651,116.612 34.8317,112.612 36.5,108.5C 38.7668,103.576 41.4335,98.9092 44.5,94.5C 46.2451,92.9674 47.2451,90.9674 47.5,88.5C 49.8292,86.5049 52.1625,84.5049 54.5,82.5C 55.0997,79.651 56.4331,77.3177 58.5,75.5C 59.4959,75.4142 60.3292,75.7476 61,76.5C 61.8164,81.1926 63.3164,81.5259 65.5,77.5C 66.1818,78.2427 66.8485,78.9094 67.5,79.5C 68.8333,79.5 70.1667,79.5 71.5,79.5C 72.8734,79.6567 74.2068,79.49 75.5,79C 76.8333,73 78.1667,73 79.5,79C 76.8841,81.4215 76.8841,82.9215 79.5,83.5C 78.6872,84.8139 77.6872,85.9805 76.5,87C 79.488,87.2172 82.1547,88.2172 84.5,90C 83.0198,92.2345 83.3531,94.0679 85.5,95.5C 86.1667,95.8333 86.8333,96.1667 87.5,96.5C 88.4687,97.3094 89.3021,98.3094 90,99.5C 90.5823,96.3323 91.5823,95.999 93,98.5C 93.3333,98.1667 93.6667,97.8333 94,97.5C 93.0417,95.0654 92.5417,92.3987 92.5,89.5C 98.6903,88.3467 104.024,86.6801 108.5,84.5C 111.167,84.5 113.833,84.5 116.5,84.5C 116.294,87.4951 116.96,90.1617 118.5,92.5C 120.017,92.4894 121.184,91.8228 122,90.5C 123.52,85.6448 126.52,81.9781 131,79.5C 131.333,75.5 131.667,71.5 132,67.5C 132.5,67 133,66.5 133.5,66C 136.817,65.5017 140.15,65.335 143.5,65.5 Z"/></g>
<g><path style="opacity:1" fill="#031207" d="M 71.5,79.5 C 70.1667,79.5 68.8333,79.5 67.5,79.5C 67.3691,78.6236 67.7025,77.9569 68.5,77.5C 70.2951,76.7349 72.1284,76.0682 74,75.5C 75.2575,75.8499 75.5908,76.5165 75,77.5C 73.6976,78.0848 72.531,78.7515 71.5,79.5 Z"/></g>
<g><path style="opacity:1" fill="#278466" d="M 58.5,74.5 C 58.5,74.8333 58.5,75.1667 58.5,75.5C 56.4331,77.3177 55.0997,79.651 54.5,82.5C 52.1625,84.5049 49.8292,86.5049 47.5,88.5C 50.1153,82.8986 53.7819,78.232 58.5,74.5 Z"/></g>
<g><path style="opacity:1" fill="#051208" d="M 87.5,96.5 C 86.8333,96.1667 86.1667,95.8333 85.5,95.5C 85.4606,94.4168 85.1272,93.4168 84.5,92.5C 86.6079,91.0562 88.9412,90.3896 91.5,90.5C 92.0306,93.8876 90.6973,95.8876 87.5,96.5 Z"/></g>
<g><path style="opacity:1" fill="#166335" d="M 108.5,84.5 C 108.5,84.1667 108.5,83.8333 108.5,83.5C 111.518,83.3354 114.518,83.502 117.5,84C 118.444,86.7191 118.777,89.5525 118.5,92.5C 116.96,90.1617 116.294,87.4951 116.5,84.5C 113.833,84.5 111.167,84.5 108.5,84.5 Z"/></g>
<g><path style="opacity:1" fill="#27816e" d="M 47.5,88.5 C 47.2451,90.9674 46.2451,92.9674 44.5,94.5C 44.5569,93.391 44.8902,92.391 45.5,91.5C 45.427,89.9731 46.0937,88.9731 47.5,88.5 Z"/></g>
<g><path style="opacity:1" fill="#347594" d="M 45.5,91.5 C 44.8902,92.391 44.5569,93.391 44.5,94.5C 41.4335,98.9092 38.7668,103.576 36.5,108.5C 36.7332,102.369 38.8998,97.0355 43,92.5C 43.6708,91.7476 44.5041,91.4142 45.5,91.5 Z"/></g>
<g><path style="opacity:1" fill="#0d3a1e" d="M 169.5,92.5 C 170.434,93.5676 170.768,94.901 170.5,96.5C 167.615,96.8064 164.948,96.4731 162.5,95.5C 164.833,95.5 167.167,95.5 169.5,95.5C 169.5,94.5 169.5,93.5 169.5,92.5 Z"/></g>
<g><path style="opacity:1" fill="#020a04" d="M 99.5,105.5 C 98.448,105.649 97.448,105.483 96.5,105C 97.2524,104.329 97.5858,103.496 97.5,102.5C 100.395,100.351 103.562,100.017 107,101.5C 107.749,102.635 107.583,103.635 106.5,104.5C 104.253,105.374 101.92,105.708 99.5,105.5 Z"/></g>
<g><path style="opacity:1" fill="#15773d" d="M 152.5,97.5 C 153.675,97.281 154.675,97.6143 155.5,98.5C 154.289,100.422 152.956,102.255 151.5,104C 148.51,104.847 147.176,103.68 147.5,100.5C 149.933,100.727 151.599,99.7271 152.5,97.5 Z"/></g>
<g><path style="opacity:1" fill="#128d44" d="M 291.5,111.5 C 293.017,112.735 294.684,112.735 296.5,111.5C 297.235,114.702 298.402,117.702 300,120.5C 300.553,123.359 300.386,126.192 299.5,129C 300.714,132.631 301.714,136.297 302.5,140C 300.684,146.446 300.351,152.946 301.5,159.5C 305.161,159.574 305.828,158.574 303.5,156.5C 304.242,155.713 305.075,155.047 306,154.5C 307.339,163.107 307.839,171.774 307.5,180.5C 307.5,184.167 307.5,187.833 307.5,191.5C 305.921,193.23 304.254,195.064 302.5,197C 303.841,200.262 303.508,200.762 301.5,198.5C 299.974,200.658 298.474,200.325 297,197.5C 296.544,196.256 297.044,195.423 298.5,195C 297.5,193.333 296.167,192 294.5,191C 296.23,189.148 297.396,189.314 298,191.5C 298.875,190.127 299.375,188.627 299.5,187C 298.779,182.052 297.946,176.885 297,171.5C 295.601,174.629 293.935,177.629 292,180.5C 291.798,178.744 291.298,177.078 290.5,175.5C 289.335,180.161 288.168,184.827 287,189.5C 285.726,186.633 284.893,183.633 284.5,180.5C 284.412,178.288 284.912,176.288 286,174.5C 286.333,176.833 286.667,179.167 287,181.5C 287.498,178.183 287.665,174.85 287.5,171.5C 279.13,171.497 270.797,171.33 262.5,171C 261.748,171.671 261.414,172.504 261.5,173.5C 254.785,177.57 247.451,179.737 239.5,180C 234.333,175.5 229.167,171 224,166.5C 219.733,159.687 219.566,152.854 223.5,146C 219.943,146.104 217.943,144.437 217.5,141C 221.254,135.575 225.754,130.742 231,126.5C 231.333,122.833 231.667,119.167 232,115.5C 236.742,110.573 242.575,108.073 249.5,108C 256.758,103.348 264.758,100.848 273.5,100.5C 273.5,103.5 273.5,106.5 273.5,109.5C 279.511,110.073 285.511,110.74 291.5,111.5 Z"/></g>
<g><path style="opacity:1" fill="#0f4a24" d="M 97.5,102.5 C 97.5858,103.496 97.2524,104.329 96.5,105C 97.448,105.483 98.448,105.649 99.5,105.5C 98.4324,106.434 97.099,106.768 95.5,106.5C 95.2291,104.62 95.8958,103.287 97.5,102.5 Z"/></g>
<g><path style="opacity:1" fill="#020d03" d="M 108.5,106.5 C 109.833,106.5 111.167,106.5 112.5,106.5C 112.833,109.5 111.5,110.833 108.5,110.5C 108.5,109.167 108.5,107.833 108.5,106.5 Z"/></g>
<g><path style="opacity:1" fill="#051208" d="M 115.5,108.5 C 117.5,108.833 119.5,109.167 121.5,109.5C 121.5,110.5 121.5,111.5 121.5,112.5C 117.759,113.401 115.759,112.068 115.5,108.5 Z"/></g>
<g><path style="opacity:1" fill="#030d03" d="M 99.5,107.5 C 100.873,107.343 102.207,107.51 103.5,108C 102.039,110.421 100.706,112.921 99.5,115.5C 98.675,116.386 97.675,116.719 96.5,116.5C 95.9238,112.888 96.9238,109.888 99.5,107.5 Z"/></g>
<g><path style="opacity:1" fill="#2d7b85" d="M 36.5,108.5 C 34.8317,112.612 33.1651,116.612 31.5,120.5C 31.6358,115.733 33.3025,111.733 36.5,108.5 Z"/></g>
<g><path style="opacity:1" fill="#297d73" d="M 297.5,108.5 C 298.931,109.903 300.098,111.569 301,113.5C 301.49,114.793 301.657,116.127 301.5,117.5C 300.542,117.047 299.708,116.381 299,115.5C 298.56,113.134 298.06,110.801 297.5,108.5 Z"/></g>
<g><path style="opacity:1" fill="#030d05" d="M 109.5,112.5 C 110.5,112.5 111.5,112.5 112.5,112.5C 113.167,116.5 111.5,118.167 107.5,117.5C 107.365,115.446 108.032,113.779 109.5,112.5 Z"/></g>
<g><path style="opacity:1" fill="#2d7c7d" d="M 301.5,117.5 C 303.213,118.635 303.88,120.302 303.5,122.5C 301.787,121.365 301.12,119.698 301.5,117.5 Z"/></g>
<g><path style="opacity:1" fill="#3a739a" d="M 31.5,120.5 C 31.4793,124.221 30.4793,127.554 28.5,130.5C 27.8333,131.833 27.1667,133.167 26.5,134.5C 26.8583,130.491 27.3583,126.491 28,122.5C 29.1127,121.695 30.2794,121.028 31.5,120.5 Z"/></g>
<g><path style="opacity:1" fill="#178b4b" d="M 296.5,106.5 C 297.338,106.842 297.672,107.508 297.5,108.5C 298.06,110.801 298.56,113.134 299,115.5C 299.708,116.381 300.542,117.047 301.5,117.5C 301.12,119.698 301.787,121.365 303.5,122.5C 305.095,126.666 306.095,130.999 306.5,135.5C 307.796,140.062 308.462,144.729 308.5,149.5C 308.828,160.014 308.494,170.347 307.5,180.5C 307.839,171.774 307.339,163.107 306,154.5C 305.075,155.047 304.242,155.713 303.5,156.5C 305.828,158.574 305.161,159.574 301.5,159.5C 300.351,152.946 300.684,146.446 302.5,140C 301.714,136.297 300.714,132.631 299.5,129C 300.386,126.192 300.553,123.359 300,120.5C 298.402,117.702 297.235,114.702 296.5,111.5C 294.684,112.735 293.017,112.735 291.5,111.5C 292.5,111.5 293.5,111.5 294.5,111.5C 294.077,109.219 294.744,107.552 296.5,106.5 Z"/></g>
<g><path style="opacity:1" fill="#317a7f" d="M 28.5,130.5 C 28.0199,135.822 27.6865,141.155 27.5,146.5C 26.8333,146.5 26.1667,146.5 25.5,146.5C 25.8333,142.5 26.1667,138.5 26.5,134.5C 27.1667,133.167 27.8333,131.833 28.5,130.5 Z"/></g>
<g><path style="opacity:1" fill="#2b4675" d="M 331.5,131.5 C 333.047,136.784 334.38,142.118 335.5,147.5C 335.5,150.167 335.5,152.833 335.5,155.5C 333.535,147.711 332.202,139.711 331.5,131.5 Z"/></g>
<g><path style="opacity:1" fill="#208265" d="M 308.5,149.5 C 309.494,158.986 309.827,168.652 309.5,178.5C 309.5,182.833 309.5,187.167 309.5,191.5C 308.833,191.5 308.167,191.5 307.5,191.5C 307.5,187.833 307.5,184.167 307.5,180.5C 308.494,170.347 308.828,160.014 308.5,149.5 Z"/></g>
<g><path style="opacity:1" fill="#3a70a6" d="M 310.5,154.5 C 311.268,155.263 311.768,156.263 312,157.5C 313.077,169.126 312.244,180.459 309.5,191.5C 309.5,187.167 309.5,182.833 309.5,178.5C 310.492,170.684 310.826,162.684 310.5,154.5 Z"/></g>
<g><path style="opacity:1" fill="#2a7c7f" d="M 306.5,135.5 C 309.118,141.436 310.451,147.769 310.5,154.5C 310.826,162.684 310.492,170.684 309.5,178.5C 309.827,168.652 309.494,158.986 308.5,149.5C 308.462,144.729 307.796,140.062 306.5,135.5 Z"/></g>
<g><path style="opacity:1" fill="#158743" d="M 307.5,191.5 C 307.5,193.5 307.5,195.5 307.5,197.5C 305.926,199.102 305.259,201.102 305.5,203.5C 304.655,204.671 303.989,206.005 303.5,207.5C 301.115,211.68 299.448,216.347 298.5,221.5C 298.253,222.713 297.586,223.38 296.5,223.5C 295.883,223.389 295.383,223.056 295,222.5C 294.038,218.181 294.705,214.181 297,210.5C 297.667,208.5 297.667,206.5 297,204.5C 292.279,198.779 287.946,192.779 284,186.5C 283.501,182.514 283.334,178.514 283.5,174.5C 277.838,174.904 272.338,174.238 267,172.5C 265.175,172.943 263.342,173.277 261.5,173.5C 261.414,172.504 261.748,171.671 262.5,171C 270.797,171.33 279.13,171.497 287.5,171.5C 287.665,174.85 287.498,178.183 287,181.5C 286.667,179.167 286.333,176.833 286,174.5C 284.912,176.288 284.412,178.288 284.5,180.5C 284.893,183.633 285.726,186.633 287,189.5C 288.168,184.827 289.335,180.161 290.5,175.5C 291.298,177.078 291.798,178.744 292,180.5C 293.935,177.629 295.601,174.629 297,171.5C 297.946,176.885 298.779,182.052 299.5,187C 299.375,188.627 298.875,190.127 298,191.5C 297.396,189.314 296.23,189.148 294.5,191C 296.167,192 297.5,193.333 298.5,195C 297.044,195.423 296.544,196.256 297,197.5C 298.474,200.325 299.974,200.658 301.5,198.5C 303.508,200.762 303.841,200.262 302.5,197C 304.254,195.064 305.921,193.23 307.5,191.5 Z"/></g>
<g><path style="opacity:1" fill="#1e3760" d="M 25.5,151.5 C 25.5,161.5 25.5,171.5 25.5,181.5C 16.9832,181.826 8.64991,181.493 0.5,180.5C 8.5,180.5 16.5,180.5 24.5,180.5C 24.1729,170.652 24.5062,160.986 25.5,151.5 Z"/></g>
<g><path style="opacity:1" fill="#312b75" d="M 1.5,187.5 C 9.16667,187.5 16.8333,187.5 24.5,187.5C 24.5,222.5 24.5,257.5 24.5,292.5C 16.8333,292.5 9.16667,292.5 1.5,292.5C 1.5,257.5 1.5,222.5 1.5,187.5 Z"/></g>
<g><path style="opacity:1" fill="#312b73" d="M 218.5,186.5 C 226.5,186.5 234.5,186.5 242.5,186.5C 242.5,213.5 242.5,240.5 242.5,267.5C 256.833,267.5 271.167,267.5 285.5,267.5C 285.5,275.5 285.5,283.5 285.5,291.5C 263.167,291.5 240.833,291.5 218.5,291.5C 218.5,256.5 218.5,221.5 218.5,186.5 Z"/></g>
<g><path style="opacity:1" fill="#2e7889" d="M 307.5,197.5 C 307.741,199.898 307.074,201.898 305.5,203.5C 305.259,201.102 305.926,199.102 307.5,197.5 Z"/></g>
<g><path style="opacity:1" fill="#38728c" d="M 305.5,203.5 C 306.01,206.388 305.344,208.721 303.5,210.5C 303.5,209.5 303.5,208.5 303.5,207.5C 303.989,206.005 304.655,204.671 305.5,203.5 Z"/></g>
<g><path style="opacity:1" fill="#355b95" d="M 47.5,201.5 C 46.2907,206.46 45.2907,211.46 44.5,216.5C 48.3016,216.788 51.135,216.121 53,214.5C 55.5472,214.762 58.0472,215.262 60.5,216C 59.8333,216.333 59.1667,216.667 58.5,217C 61.2605,217.722 63.9272,217.555 66.5,216.5C 64.777,217.8 62.6103,218.467 60,218.5C 54.5109,217.934 49.0109,217.601 43.5,217.5C 43.3354,214.482 43.502,211.482 44,208.5C 44.8602,205.916 46.0269,203.583 47.5,201.5 Z"/></g>
<g><path style="opacity:1" fill="#201e46" d="M 129.5,208.5 C 129.5,214.167 129.5,219.833 129.5,225.5C 127.983,223.538 127.316,221.205 127.5,218.5C 127.55,214.914 128.217,211.58 129.5,208.5 Z"/></g>
<g><path style="opacity:1" fill="#228364" d="M 303.5,207.5 C 303.5,208.5 303.5,209.5 303.5,210.5C 302.444,215.697 300.444,220.364 297.5,224.5C 296.833,224.5 296.5,224.167 296.5,223.5C 297.586,223.38 298.253,222.713 298.5,221.5C 299.448,216.347 301.115,211.68 303.5,207.5 Z"/></g>
<g><path style="opacity:1" fill="#1c1641" d="M 1.5,187.5 C 9.31587,186.508 17.3159,186.174 25.5,186.5C 25.8317,222.004 25.4984,257.337 24.5,292.5C 24.5,257.5 24.5,222.5 24.5,187.5C 16.8333,187.5 9.16667,187.5 1.5,187.5 Z"/></g>
<g><path style="opacity:1" fill="#312b72" d="M 198.5,246.5 C 199.29,253.471 199.623,260.471 199.5,267.5C 196.467,280.368 188.467,288.535 175.5,292C 166.213,293.483 156.879,293.816 147.5,293C 138.525,291.189 131.192,286.856 125.5,280C 130.446,273.578 135.946,267.745 142,262.5C 150.571,271.833 160.737,274 172.5,269C 178.38,264.912 179.047,260.078 174.5,254.5C 162.863,249.566 151.196,244.733 139.5,240C 134.329,236.346 130.995,231.513 129.5,225.5C 129.5,219.833 129.5,214.167 129.5,208.5C 133.471,196.156 141.804,188.323 154.5,185C 168.735,181.994 182.402,183.661 195.5,190C 197.208,191.51 198.874,193.01 200.5,194.5C 195.864,200.637 190.697,206.303 185,211.5C 177.945,206.445 170.111,204.611 161.5,206C 153.371,209.043 151.371,214.376 155.5,222C 162.989,226.212 170.989,229.212 179.5,231C 187.886,233.907 194.219,239.074 198.5,246.5 Z"/></g>
<g><path style="opacity:1" fill="#406bb2" d="M 71.5,269.5 C 70.9569,269.56 70.6236,269.893 70.5,270.5C 85.4852,271.499 100.485,271.833 115.5,271.5C 115.5,277.833 115.5,284.167 115.5,290.5C 91.1667,290.5 66.8333,290.5 42.5,290.5C 42.5,282.5 42.5,274.5 42.5,266.5C 55.6287,255.208 68.6287,243.708 81.5,232C 85.4217,228.749 88.5883,224.916 91,220.5C 93.3287,213.163 90.8287,208.33 83.5,206C 74.3895,203.946 68.7229,207.446 66.5,216.5C 63.9272,217.555 61.2605,217.722 58.5,217C 59.1667,216.667 59.8333,216.333 60.5,216C 58.0472,215.262 55.5472,214.762 53,214.5C 51.135,216.121 48.3016,216.788 44.5,216.5C 45.2907,211.46 46.2907,206.46 47.5,201.5C 52.3187,192.872 59.652,187.372 69.5,185C 81.0504,183.25 92.0504,184.917 102.5,190C 112.988,198.823 116.821,209.989 114,223.5C 112.712,228.98 110.379,233.98 107,238.5C 95.295,249.042 83.4617,259.376 71.5,269.5 Z"/></g>
<g><path style="opacity:1" fill="#292256" d="M 198.5,246.5 C 202.097,253.331 202.43,260.331 199.5,267.5C 199.623,260.471 199.29,253.471 198.5,246.5 Z"/></g>
<g><path style="opacity:1" fill="#21375c" d="M 71.5,269.5 C 86.1667,270.167 100.833,270.833 115.5,271.5C 100.485,271.833 85.4852,271.499 70.5,270.5C 70.6236,269.893 70.9569,269.56 71.5,269.5 Z"/></g>
<g><path style="opacity:1" fill="#264474" d="M 42.5,266.5 C 42.5,274.5 42.5,282.5 42.5,290.5C 66.8333,290.5 91.1667,290.5 115.5,290.5C 91.0056,291.498 66.339,291.831 41.5,291.5C 41.1739,282.983 41.5073,274.65 42.5,266.5 Z"/></g>
<g><path style="opacity:1" fill="#221d4c" d="M 218.5,186.5 C 218.5,221.5 218.5,256.5 218.5,291.5C 240.833,291.5 263.167,291.5 285.5,291.5C 285.5,283.5 285.5,275.5 285.5,267.5C 271.167,267.5 256.833,267.5 242.5,267.5C 242.5,240.5 242.5,213.5 242.5,186.5C 234.5,186.5 226.5,186.5 218.5,186.5 Z"/></g>
<g><path style="opacity:1" fill="#2d2767" d="M 93.5,304.5 C 95.337,304.639 95.6704,305.306 94.5,306.5C 93.7025,306.043 93.3691,305.376 93.5,304.5 Z"/></g>
<g><path style="opacity:1" fill="#2e265a" d="M 143.5,302.5 C 144.821,305.598 145.488,309.098 145.5,313C 145.167,316.5 144.833,320 144.5,323.5C 143.503,316.532 143.17,309.532 143.5,302.5 Z"/></g>
<g><path style="opacity:1" fill="#272352" d="M 198.5,304.5 C 199.675,304.281 200.675,304.614 201.5,305.5C 199.948,306.798 198.948,306.465 198.5,304.5 Z"/></g>
<g><path style="opacity:1" fill="#272157" d="M 205.5,306.5 C 207.176,307.183 207.843,308.517 207.5,310.5C 212.833,311.167 212.833,311.833 207.5,312.5C 207.5,315.833 207.5,319.167 207.5,322.5C 211.588,322.218 212.088,322.885 209,324.5C 207.739,324.241 206.739,323.574 206,322.5C 205.985,318.585 205.152,314.918 203.5,311.5C 205.005,310.158 205.672,308.492 205.5,306.5 Z"/></g>
<g><path style="opacity:1" fill="#29235a" d="M 157.5,303.5 C 158.82,306.428 159.486,309.761 159.5,313.5C 159.167,316.833 158.833,320.167 158.5,323.5C 157.503,316.866 157.17,310.2 157.5,303.5 Z"/></g>
<g><path style="opacity:1" fill="#28225a" d="M 85.5,307.5 C 87.0481,307.821 87.7148,308.821 87.5,310.5C 92.8333,311.167 92.8333,311.833 87.5,312.5C 87.3354,315.518 87.502,318.518 88,321.5C 89.0674,322.191 90.2341,322.691 91.5,323C 89.5217,325.015 87.6884,324.848 86,322.5C 85.9853,318.585 85.1519,314.918 83.5,311.5C 84.8532,310.476 85.5198,309.143 85.5,307.5 Z"/></g>
<g><path style="opacity:1" fill="#251f52" d="M 118.5,310.5 C 121.272,310.22 123.772,310.887 126,312.5C 126.499,316.152 126.665,319.818 126.5,323.5C 125.5,323.5 124.5,323.5 123.5,323.5C 123.5,319.833 123.5,316.167 123.5,312.5C 121.533,312.261 119.699,312.594 118,313.5C 117.824,316.882 117.324,320.215 116.5,323.5C 115.509,319.555 115.176,315.555 115.5,311.5C 116.791,311.737 117.791,311.404 118.5,310.5 Z"/></g>
<g><path style="opacity:1" fill="#2c255f" d="M 248.5,317.5 C 244.818,317.665 241.152,317.499 237.5,317C 240.695,316.819 243.695,316.319 246.5,315.5C 244.263,311.98 241.596,311.647 238.5,314.5C 238.5,313.833 238.5,313.167 238.5,312.5C 244.307,308.824 247.641,310.491 248.5,317.5 Z"/></g>
<g><path style="opacity:1" fill="#2a235c" d="M 261.5,302.5 C 266.579,302.782 266.746,303.782 262,305.5C 261.506,307.134 261.34,308.801 261.5,310.5C 265.5,311.167 265.5,311.833 261.5,312.5C 261.823,316.226 261.489,319.893 260.5,323.5C 260.014,319.303 259.014,315.303 257.5,311.5C 258.934,308.494 260.267,305.494 261.5,302.5 Z"/></g>
<g><path style="opacity:1" fill="#1d1741" d="M 2.5,303.5 C 3.5,303.5 4.5,303.5 5.5,303.5C 5.5,310.167 5.5,316.833 5.5,323.5C 4.5,323.5 3.5,323.5 2.5,323.5C 2.5,316.833 2.5,310.167 2.5,303.5 Z"/></g>
<g><path style="opacity:1" fill="#02010a" d="M 246.5,315.5 C 243.615,315.806 240.948,315.473 238.5,314.5C 241.596,311.647 244.263,311.98 246.5,315.5 Z"/></g>
<g><path style="opacity:1" fill="#2a2353" d="M 282.5,310.5 C 284.785,310.705 287.118,311.038 289.5,311.5C 287.807,312.228 286.307,313.228 285,314.5C 284.821,317.553 284.321,320.553 283.5,323.5C 282.508,319.217 282.174,314.884 282.5,310.5 Z"/></g>
<g><path style="opacity:1" fill="#241d4e" d="M 93.5,310.5 C 94.8001,312.223 95.4668,314.39 95.5,317C 95.1667,319.167 94.8333,321.333 94.5,323.5C 93.5078,319.217 93.1744,314.884 93.5,310.5 Z"/></g>
<g><path style="opacity:1" fill="#282257" d="M 102.5,310.5 C 109.799,309.371 112.965,312.371 112,319.5C 108.797,325.136 104.797,325.802 100,321.5C 98.8118,317.259 99.6451,313.592 102.5,310.5 Z"/></g>
<g><path style="opacity:1" fill="#010108" d="M 103.5,312.5 C 107.211,311.846 109.211,313.346 109.5,317C 109.053,322.593 106.553,323.759 102,320.5C 101.133,317.479 101.633,314.812 103.5,312.5 Z"/></g>
<g><path style="opacity:1" fill="#282257" d="M 9.5,310.5 C 12.4557,310.699 15.4557,311.032 18.5,311.5C 19.8333,315.5 19.8333,319.5 18.5,323.5C 17.5108,319.893 17.1774,316.226 17.5,312.5C 15.5328,312.261 13.6995,312.594 12,313.5C 11.8236,316.882 11.3236,320.215 10.5,323.5C 9.50776,319.217 9.17443,314.884 9.5,310.5 Z"/></g>
<g><path style="opacity:1" fill="#2b265c" d="M 191.5,307.5 C 192.404,308.209 192.737,309.209 192.5,310.5C 197.833,311.167 197.833,311.833 192.5,312.5C 192.335,315.518 192.502,318.518 193,321.5C 194.205,322.071 195.372,322.738 196.5,323.5C 194.994,324.747 193.494,324.747 192,323.5C 191.501,319.848 191.335,316.182 191.5,312.5C 187.5,311.833 187.5,311.167 191.5,310.5C 191.5,309.5 191.5,308.5 191.5,307.5 Z"/></g>
<g><path style="opacity:1" fill="#241f4d" d="M 24.5,307.5 C 25.5,307.5 26.5,307.5 27.5,307.5C 27.5,308.5 27.5,309.5 27.5,310.5C 31.5,311.167 31.5,311.833 27.5,312.5C 27.5,315.833 27.5,319.167 27.5,322.5C 28.675,322.281 29.675,322.614 30.5,323.5C 28.3886,324.848 26.5553,324.515 25,322.5C 24.9853,318.585 24.1519,314.918 22.5,311.5C 23.8532,310.476 24.5198,309.143 24.5,307.5 Z"/></g>
<g><path style="opacity:1" fill="#2b2462" d="M 47.5,310.5 C 49.4804,310.854 51.4804,311.187 53.5,311.5C 52.2402,312.382 51.0736,313.382 50,314.5C 49.8214,317.553 49.3214,320.553 48.5,323.5C 47.5078,319.217 47.1744,314.884 47.5,310.5 Z"/></g>
<g><path style="opacity:1" fill="#221d4b" d="M 59.5,310.5 C 62.3646,310.055 64.8646,310.722 67,312.5C 67.4986,316.152 67.6653,319.818 67.5,323.5C 66.5,323.5 65.5,323.5 64.5,323.5C 64.665,320.15 64.4983,316.817 64,313.5C 62.0624,312.14 60.3957,312.473 59,314.5C 58.8214,317.553 58.3214,320.553 57.5,323.5C 56.5091,319.555 56.1758,315.555 56.5,311.5C 57.791,311.737 58.791,311.404 59.5,310.5 Z"/></g>
<g><path style="opacity:1" fill="#272152" d="M 72.5,310.5 C 81.2942,310.62 83.9608,314.954 80.5,323.5C 77.4116,323.648 74.245,323.315 71,322.5C 70.3333,320.833 70.3333,319.167 71,317.5C 73.3549,316.192 75.8549,315.192 78.5,314.5C 76.9007,312.271 74.9007,311.938 72.5,313.5C 71.4376,312.575 71.4376,311.575 72.5,310.5 Z"/></g>
<g><path style="opacity:1" fill="#292359" d="M 229.5,307.5 C 231.048,307.821 231.715,308.821 231.5,310.5C 235.5,311.167 235.5,311.833 231.5,312.5C 231.5,315.833 231.5,319.167 231.5,322.5C 232.675,322.281 233.675,322.614 234.5,323.5C 232.994,324.747 231.494,324.747 230,323.5C 229.501,319.848 229.335,316.182 229.5,312.5C 225.5,311.833 225.5,311.167 229.5,310.5C 229.5,309.5 229.5,308.5 229.5,307.5 Z"/></g>
<g><path style="opacity:1" fill="#1d1a3c" d="M 238.5,312.5 C 238.5,313.167 238.5,313.833 238.5,314.5C 240.948,315.473 243.615,315.806 246.5,315.5C 243.695,316.319 240.695,316.819 237.5,317C 241.152,317.499 244.818,317.665 248.5,317.5C 245.203,317.89 242.203,318.89 239.5,320.5C 238.662,320.842 238.328,321.508 238.5,322.5C 234.5,319.167 234.5,315.833 238.5,312.5 Z"/></g>
<g><path style="opacity:1" fill="#251f4e" d="M 269.5,310.5 C 276.799,309.371 279.965,312.371 279,319.5C 275.087,325.617 270.754,325.951 266,320.5C 264.756,316.191 265.923,312.858 269.5,310.5 Z"/></g>
<g><path style="opacity:1" fill="#010108" d="M 269.5,312.5 C 276.628,312.706 278.294,315.873 274.5,322C 272.299,322.825 270.466,322.325 269,320.5C 268.398,317.779 268.565,315.113 269.5,312.5 Z"/></g>
<g><path style="opacity:1" fill="#04020f" d="M 74.5,317.5 C 75.8333,317.5 77.1667,317.5 78.5,317.5C 78.7067,320.127 77.54,321.793 75,322.5C 71.9281,321.119 71.7614,319.452 74.5,317.5 Z"/></g>
<g><path style="opacity:1" fill="#221e48" d="M 163.5,310.5 C 166.98,310.571 170.48,310.904 174,311.5C 175.354,315.363 175.854,319.363 175.5,323.5C 174.5,323.5 173.5,323.5 172.5,323.5C 172.665,320.15 172.498,316.817 172,313.5C 169.733,312.065 167.733,312.398 166,314.5C 165.821,317.553 165.321,320.553 164.5,323.5C 163.508,319.217 163.174,314.884 163.5,310.5 Z"/></g>
<g><path style="opacity:1" fill="#231e4e" d="M 35.5,310.5 C 41.7985,309.636 44.4651,312.136 43.5,318C 40.4465,318.179 37.4465,318.679 34.5,319.5C 36.7291,323.055 39.3958,323.388 42.5,320.5C 43.5709,322.325 42.9042,323.492 40.5,324C 33.8468,324.344 31.0135,321.177 32,314.5C 32.6897,312.65 33.8564,311.316 35.5,310.5 Z"/></g>
<g><path style="opacity:1" fill="#010106" d="M 35.5,312.5 C 37.9775,312.051 39.9775,312.717 41.5,314.5C 39.2351,315.647 36.9018,315.814 34.5,315C 35.2524,314.329 35.5858,313.496 35.5,312.5 Z"/></g>
<g><path style="opacity:1" fill="#2a235c" d="M 131.5,310.5 C 134.365,310.055 136.865,310.722 139,312.5C 139.499,316.152 139.665,319.818 139.5,323.5C 137.453,323.511 135.453,323.844 133.5,324.5C 129.853,323.514 128.686,321.181 130,317.5C 132.355,316.192 134.855,315.192 137.5,314.5C 135.55,312.247 133.216,311.914 130.5,313.5C 130.167,313.167 129.833,312.833 129.5,312.5C 130.243,311.818 130.909,311.151 131.5,310.5 Z"/></g>
<g><path style="opacity:1" fill="#03020c" d="M 133.5,317.5 C 134.833,317.5 136.167,317.5 137.5,317.5C 137.707,320.127 136.54,321.793 134,322.5C 130.928,321.119 130.761,319.452 133.5,317.5 Z"/></g>
<g><path style="opacity:1" fill="#262256" d="M 179.5,310.5 C 181.792,310.244 183.959,310.577 186,311.5C 186.688,312.332 186.521,312.998 185.5,313.5C 183.929,312.691 182.262,312.357 180.5,312.5C 180.281,313.675 180.614,314.675 181.5,315.5C 183.167,316.167 184.833,316.833 186.5,317.5C 188.52,321.698 187.187,324.031 182.5,324.5C 180.813,324.24 179.313,323.573 178,322.5C 177.312,321.668 177.479,321.002 178.5,320.5C 180.962,323.053 183.295,323.053 185.5,320.5C 183.208,318.563 180.708,316.896 178,315.5C 177.387,313.505 177.887,311.838 179.5,310.5 Z"/></g>
<g><path style="opacity:1" fill="#221f44" d="M 198.5,310.5 C 199.496,310.414 200.329,310.748 201,311.5C 201.499,315.486 201.666,319.486 201.5,323.5C 200.5,323.5 199.5,323.5 198.5,323.5C 198.5,319.167 198.5,314.833 198.5,310.5 Z"/></g>
<g><path style="opacity:1" fill="#2a265c" d="M 213.5,310.5 C 215.26,313.701 216.094,317.367 216,321.5C 218.267,322.935 220.267,322.602 222,320.5C 222.333,317.167 222.667,313.833 223,310.5C 223.2,314.753 223.7,318.92 224.5,323C 220.796,324.717 217.296,324.551 214,322.5C 213.501,318.514 213.334,314.514 213.5,310.5 Z"/></g>
<g><path style="opacity:1" fill="#2c2661" d="M 239.5,320.5 C 241.669,323.068 244.002,323.068 246.5,320.5C 246.833,320.833 247.167,321.167 247.5,321.5C 244.796,324.93 241.796,325.264 238.5,322.5C 238.328,321.508 238.662,320.842 239.5,320.5 Z"/></g>
<g><path style="opacity:1" fill="#24204c" d="M 257.5,335.5 C 261.31,336.754 261.31,337.754 257.5,338.5C 257.5,337.5 257.5,336.5 257.5,335.5 Z"/></g>
<g><path style="opacity:1" fill="#221d4a" d="M 65.5,335.5 C 67.0481,335.821 67.7148,336.821 67.5,338.5C 64.7524,338.598 64.0857,337.598 65.5,335.5 Z"/></g>
<g><path style="opacity:1" fill="#29225c" d="M 33.5,341.5 C 36.2776,341.022 38.2776,342.022 39.5,344.5C 39.1667,344.833 38.8333,345.167 38.5,345.5C 37.1502,344.05 35.4835,343.383 33.5,343.5C 33.5,344.833 33.5,346.167 33.5,347.5C 36.8554,347.368 39.1887,348.701 40.5,351.5C 40.4712,353.029 39.8045,354.196 38.5,355C 36.2305,355.758 34.0639,355.591 32,354.5C 31.3123,353.668 31.479,353.002 32.5,352.5C 34.0709,353.309 35.7376,353.643 37.5,353.5C 37.4709,350.344 35.8043,348.678 32.5,348.5C 31.1668,345.862 31.5002,343.529 33.5,341.5 Z"/></g>
<g><path style="opacity:1" fill="#28235b" d="M 65.5,342.5 C 66.8001,344.223 67.4668,346.39 67.5,349C 67.1667,351.167 66.8333,353.333 66.5,355.5C 65.5078,351.217 65.1744,346.884 65.5,342.5 Z"/></g>
<g><path style="opacity:1" fill="#28235b" d="M 5.5,334.5 C 8.79765,334.016 11.4643,335.016 13.5,337.5C 13,337.833 12.5,338.167 12,338.5C 6.4856,335.356 4.31893,336.856 5.5,343C 7.95521,344.312 10.4552,345.478 13,346.5C 14.509,354.195 11.3423,357.028 3.5,355C 2.83333,354.333 2.16667,353.667 1.5,353C 3.52685,352.502 5.52685,352.669 7.5,353.5C 11.0239,352.95 12.0239,351.116 10.5,348C 5.04342,346.891 2.21009,343.725 2,338.5C 3.37561,337.295 4.54227,335.962 5.5,334.5 Z"/></g>
<g><path style="opacity:1" fill="#282157" d="M 190.5,341.5 C 197.193,341.685 200.026,345.019 199,351.5C 196.839,355.124 193.672,356.291 189.5,355C 184.045,350.011 184.378,345.511 190.5,341.5 Z"/></g>
<g><path style="opacity:1" fill="#2a245f" d="M 175.5,355.5 C 174.019,354.579 172.686,353.412 171.5,352C 171.683,350.316 172.35,350.15 173.5,351.5C 175.011,353.441 177.011,353.941 179.5,353C 181.457,350.879 181.957,348.379 181,345.5C 177.972,342.574 175.472,342.908 173.5,346.5C 172.503,346.53 171.836,346.03 171.5,345C 172.056,343.989 172.722,343.156 173.5,342.5C 181.853,340.688 185.02,344.021 183,352.5C 181.152,355.041 178.652,356.041 175.5,355.5 Z"/></g>
<g><path style="opacity:1" fill="#010108" d="M 173.5,351.5 C 173.5,349.833 173.5,348.167 173.5,346.5C 175.472,342.908 177.972,342.574 181,345.5C 181.957,348.379 181.457,350.879 179.5,353C 177.011,353.941 175.011,353.441 173.5,351.5 Z"/></g>
<g><path style="opacity:1" fill="#010107" d="M 191.5,343.5 C 193.39,343.297 194.89,343.963 196,345.5C 198.011,353.17 195.678,355.17 189,351.5C 187.837,348.029 188.67,345.362 191.5,343.5 Z"/></g>
<g><path style="opacity:1" fill="#292352" d="M 206.5,341.5 C 207.675,341.281 208.675,341.614 209.5,342.5C 207.677,343.491 206.177,344.824 205,346.5C 204.821,349.553 204.321,352.553 203.5,355.5C 202.508,351.217 202.174,346.884 202.5,342.5C 204.099,342.768 205.432,342.434 206.5,341.5 Z"/></g>
<g><path style="opacity:1" fill="#29235a" d="M 225.5,338.5 C 227.176,339.183 227.843,340.517 227.5,342.5C 232.833,342.833 232.833,343.167 227.5,343.5C 227.5,346.833 227.5,350.167 227.5,353.5C 228.978,353.238 230.311,353.571 231.5,354.5C 229.647,355.76 227.814,355.76 226,354.5C 225.667,351.167 225.333,347.833 225,344.5C 224.5,344 224,343.5 223.5,343C 225.107,341.951 225.773,340.451 225.5,338.5 Z"/></g>
<g><path style="opacity:1" fill="#28225a" d="M 253.5,341.5 C 254.376,341.369 255.043,341.702 255.5,342.5C 254.24,343.382 253.074,344.382 252,345.5C 251.824,348.882 251.324,352.215 250.5,355.5C 249.508,351.217 249.174,346.884 249.5,342.5C 251.099,342.768 252.432,342.434 253.5,341.5 Z"/></g>
<g><path style="opacity:1" fill="#231e49" d="M 115.5,334.5 C 116.5,334.5 117.5,334.5 118.5,334.5C 118.5,341.5 118.5,348.5 118.5,355.5C 117.5,355.5 116.5,355.5 115.5,355.5C 115.5,348.5 115.5,341.5 115.5,334.5 Z"/></g>
<g><path style="opacity:1" fill="#282354" d="M 257.5,342.5 C 258.8,344.223 259.467,346.39 259.5,349C 259.167,351.167 258.833,353.333 258.5,355.5C 257.508,351.217 257.174,346.884 257.5,342.5 Z"/></g>
<g><path style="opacity:1" fill="#29235c" d="M 267.5,341.5 C 273.215,341.215 275.882,343.882 275.5,349.5C 272.102,349.18 268.768,349.513 265.5,350.5C 265.977,351.478 266.643,352.311 267.5,353C 269.995,353.157 272.328,353.324 274.5,353.5C 268.234,357.302 264.567,355.635 263.5,348.5C 263.197,345.156 264.53,342.822 267.5,341.5 Z"/></g>
<g><path style="opacity:1" fill="#03020c" d="M 268.5,343.5 C 270.912,343.244 272.579,344.244 273.5,346.5C 270.833,347.833 268.167,347.833 265.5,346.5C 266.34,345.265 267.34,344.265 268.5,343.5 Z"/></g>
<g><path style="opacity:1" fill="#29235a" d="M 125.5,341.5 C 131.215,341.215 133.882,343.882 133.5,349.5C 130.102,349.18 126.768,349.513 123.5,350.5C 123.977,351.478 124.643,352.311 125.5,353C 127.995,353.157 130.328,353.324 132.5,353.5C 126.573,357.193 122.906,355.693 121.5,349C 121.43,345.634 122.763,343.134 125.5,341.5 Z"/></g>
<g><path style="opacity:1" fill="#02020a" d="M 126.5,343.5 C 128.912,343.244 130.579,344.244 131.5,346.5C 128.894,347.652 126.227,347.818 123.5,347C 124.71,345.961 125.71,344.794 126.5,343.5 Z"/></g>
<g><path style="opacity:1" fill="#262153" d="M 159.5,341.5 C 165.454,341.286 168.121,344.12 167.5,350C 167.167,351.833 166.833,353.667 166.5,355.5C 163.547,355.47 160.547,355.137 157.5,354.5C 156.515,352.902 156.349,351.235 157,349.5C 159.228,347.887 161.728,347.22 164.5,347.5C 164.67,346.178 164.337,345.011 163.5,344C 161.343,343.922 159.343,343.755 157.5,343.5C 158.243,342.818 158.909,342.151 159.5,341.5 Z"/></g>
<g><path style="opacity:1" fill="#252051" d="M 213.5,341.5 C 216.505,341.253 219.005,342.253 221,344.5C 221.825,348.211 221.659,351.878 220.5,355.5C 217.604,355.293 214.604,355.127 211.5,355C 208.808,352.368 209.141,350.034 212.5,348C 214.473,347.505 216.473,347.338 218.5,347.5C 218.67,346.178 218.337,345.011 217.5,344C 215.189,344.155 212.856,344.155 210.5,344C 211.571,343.148 212.571,342.315 213.5,341.5 Z"/></g>
<g><path style="opacity:1" fill="#2e2857" d="M 144.5,335.5 C 146.453,341.074 147.12,347.074 146.5,353.5C 149.572,353.183 152.572,353.516 155.5,354.5C 151.893,355.489 148.226,355.823 144.5,355.5C 144.5,348.833 144.5,342.167 144.5,335.5 Z"/></g>
<g><path style="opacity:1" fill="#01010a" d="M 159.5,349.5 C 161.167,349.5 162.833,349.5 164.5,349.5C 164.299,353.35 162.466,354.35 159,352.5C 158.53,351.423 158.697,350.423 159.5,349.5 Z"/></g>
<g><path style="opacity:1" fill="#01000a" d="M 213.5,349.5 C 215.167,349.5 216.833,349.5 218.5,349.5C 218.299,353.35 216.466,354.35 213,352.5C 212.53,351.423 212.697,350.423 213.5,349.5 Z"/></g>
<g><path style="opacity:1" fill="#2b255e" d="M 80.5,342.5 C 80.7373,343.791 80.404,344.791 79.5,345.5C 77.9229,342.983 76.0896,342.983 74,345.5C 73.8236,348.882 73.3236,352.215 72.5,355.5C 71.5078,351.217 71.1744,346.884 71.5,342.5C 74.5785,341.628 77.5785,341.628 80.5,342.5 Z"/></g>
<g><path style="opacity:1" fill="#29235d" d="M 88.5,341.5 C 91.0444,341.104 93.2111,341.771 95,343.5C 95.4988,347.486 95.6655,351.486 95.5,355.5C 92.8127,355.664 90.146,355.497 87.5,355C 84.4663,349.162 86.4663,346.662 93.5,347.5C 93.67,346.178 93.3366,345.011 92.5,344C 90.1893,344.155 87.856,344.155 85.5,344C 86.5707,343.148 87.5707,342.315 88.5,341.5 Z"/></g>
<g><path style="opacity:1" fill="#03010b" d="M 88.5,349.5 C 90.1667,349.5 91.8333,349.5 93.5,349.5C 93.2407,353.068 91.2407,354.401 87.5,353.5C 87.4326,352.041 87.7659,350.708 88.5,349.5 Z"/></g>
<g><path style="opacity:1" fill="#282159" d="M 53.5,341.5 C 59.4041,341.238 62.0708,344.072 61.5,350C 61.1667,351.833 60.8333,353.667 60.5,355.5C 57.9334,355.222 55.2667,355.056 52.5,355C 50.6751,353.534 50.1751,351.701 51,349.5C 53.5645,347.821 56.3979,347.154 59.5,347.5C 59.6399,345.876 58.9733,344.71 57.5,344C 55.5,344 53.5,344 51.5,344C 52.3805,343.292 53.0472,342.458 53.5,341.5 Z"/></g>
<g><path style="opacity:1" fill="#020109" d="M 53.5,349.5 C 55.5,349.5 57.5,349.5 59.5,349.5C 58.9694,352.779 56.9694,354.113 53.5,353.5C 53.5,352.167 53.5,350.833 53.5,349.5 Z"/></g>
<g><path style="opacity:1" fill="#1c1a3c" d="M 80.5,342.5 C 81.1174,342.611 81.6174,342.944 82,343.5C 82.4988,347.486 82.6655,351.486 82.5,355.5C 81.5,355.5 80.5,355.5 79.5,355.5C 79.5,352.167 79.5,348.833 79.5,345.5C 80.404,344.791 80.7373,343.791 80.5,342.5 Z"/></g>
<g><path style="opacity:1" fill="#1e1b40" d="M 173.5,342.5 C 172.722,343.156 172.056,343.989 171.5,345C 171.836,346.03 172.503,346.53 173.5,346.5C 173.5,348.167 173.5,349.833 173.5,351.5C 172.35,350.15 171.683,350.316 171.5,352C 172.686,353.412 174.019,354.579 175.5,355.5C 173.833,355.5 172.167,355.5 170.5,355.5C 170.5,348.5 170.5,341.5 170.5,334.5C 171.5,334.5 172.5,334.5 173.5,334.5C 173.5,337.167 173.5,339.833 173.5,342.5 Z"/></g>
<g><path style="opacity:1" fill="#292259" d="M 43.5,338.5 C 45.1765,339.183 45.8432,340.517 45.5,342.5C 50.8333,342.833 50.8333,343.167 45.5,343.5C 45.5,346.833 45.5,350.167 45.5,353.5C 46.9778,353.238 48.3112,353.571 49.5,354.5C 47.6471,355.76 45.8138,355.76 44,354.5C 43.6667,351.167 43.3333,347.833 43,344.5C 42.5,344 42,343.5 41.5,343C 43.1066,341.951 43.7733,340.451 43.5,338.5 Z"/></g>
<g><path style="opacity:1" fill="#282258" d="M 99.5,334.5 C 101.094,337.061 102.094,340.061 102.5,343.5C 108.113,340.468 111.78,342.135 113.5,348.5C 112.53,350.483 111.53,352.483 110.5,354.5C 107.118,355.246 103.785,355.579 100.5,355.5C 99.503,348.532 99.1697,341.532 99.5,334.5 Z"/></g>
<g><path style="opacity:1" fill="#04030d" d="M 104.5,343.5 C 111.299,344.109 112.966,347.275 109.5,353C 101.03,353.531 99.3638,350.364 104.5,343.5 Z"/></g>
<g><path style="opacity:1" fill="#272156" d="M 16.5,342.5 C 17.5,342.5 18.5,342.5 19.5,342.5C 19.5,346.167 19.5,349.833 19.5,353.5C 21.4672,353.739 23.3005,353.406 25,352.5C 25.1764,349.118 25.6764,345.785 26.5,342.5C 27.8333,346.833 27.8333,351.167 26.5,355.5C 23.6805,355.481 20.8472,355.148 18,354.5C 16.6463,350.637 16.1463,346.637 16.5,342.5 Z"/></g>
<g><path style="opacity:1" fill="#262055" d="M 280.5,341.5 C 282.827,341.247 284.827,341.914 286.5,343.5C 285.224,344.645 283.891,344.645 282.5,343.5C 281.5,343.833 280.833,344.5 280.5,345.5C 281.714,347.069 283.381,347.902 285.5,348C 288.167,350.333 288.167,352.667 285.5,355C 282.534,355.895 279.867,355.395 277.5,353.5C 280.044,353.051 282.71,353.051 285.5,353.5C 285.719,352.325 285.386,351.325 284.5,350.5C 277.296,349.7 275.962,346.7 280.5,341.5 Z"/></g>
<g><path style="opacity:1" fill="#282157" d="M 237.5,341.5 C 244.865,341.714 247.365,345.38 245,352.5C 236.421,358.169 232.421,355.836 233,345.5C 234.397,343.93 235.897,342.596 237.5,341.5 Z"/></g>
<g><path style="opacity:1" fill="#010107" d="M 237.5,343.5 C 243.566,344.659 244.9,347.826 241.5,353C 239.559,353.743 237.726,353.576 236,352.5C 235.068,349.177 235.568,346.177 237.5,343.5 Z"/></g>
</svg>
